<svg xmlns:xlink="http://www.w3.org/1999/xlink" height="100%"
     stroke-miterlimit="10" style="fill-rule:nonzero;clip-rule:evenodd;stroke-linecap:round;stroke-linejoin:round;"
     version="1.1" viewBox="0 0 290 324" width="100%" xml:space="preserve"
     xmlns="http://www.w3.org/2000/svg">
<defs>
<path d="M8.91311 31.8705L9.40572 31.6349C13.3984 29.7247 19.1554 32.1778 22.2642 37.1139L114.075 182.894C117.184 187.831 116.467 193.381 112.475 195.291L111.982 195.527C107.989 197.437 102.233 194.984 99.1241 190.047L7.31255 44.267C4.20377 39.3308 4.92037 33.7807 8.91311 31.8705Z"
      id="Fill_10"/>
    <path d="M89.2986 218.976C115.513 211.509 136.248 185.975 136.959 170.222C137.671 154.469 117.845 156.824 117.845 156.824C117.845 156.824 127.034 135.592 114.603 128.343C102.173 121.094 91.3506 134.019 91.3506 134.019C91.3506 134.019 81.8778 99.1218 56.4849 107.343C31.0921 115.564 45.2858 148.028 45.2858 148.028C45.2858 148.028 31.314 142.836 24.2841 157.924C17.2541 173.011 37.8021 184.253 37.8021 184.253L28.998 197.291C28.998 197.291 63.0841 226.443 89.2986 218.976Z"
          id="Fill_10_2"/>
    <path d="M142.327 184.634C165.261 169.904 177.725 139.463 173.85 124.178C169.974 108.892 151.677 116.881 151.677 116.881C151.677 116.881 154.332 93.8986 140.336 90.5547C126.34 87.2108 119.719 102.714 119.719 102.714C119.719 102.714 100.557 72.0486 78.6275 87.2628C56.6979 102.477 79.6748 129.448 79.6748 129.448C79.6748 129.448 64.7983 128.519 62.4328 144.995C60.0672 161.471 82.9886 166.29 82.9886 166.29L78.3317 181.316C78.3317 181.316 119.393 199.364 142.327 184.634Z"
          id="Fill_10_3"/>
    <path d="M170.261 180.143C149.916 162.004 142.371 129.988 148.592 115.498C154.812 101.007 171.633 111.762 171.633 111.762C171.633 111.762 172.608 88.647 186.955 87.5353C201.302 86.4236 205.415 102.773 205.415 102.773C205.415 102.773 229.141 75.4846 248.418 93.9441C267.696 112.404 240.78 135.446 240.78 135.446C240.78 135.446 255.619 136.857 255.376 153.5C255.133 170.143 231.74 171.314 231.74 171.314L233.987 186.884C233.987 186.884 190.607 198.281 170.261 180.143Z"
          id="Fill_10_4"/>
    <path d="M209.198 190.203L169.617 113.581C167.518 114.167 165.469 114.917 163.493 115.799C151.01 121.372 141.271 132.607 138.27 147.013C133.306 170.836 148.598 194.179 172.421 199.143C183.626 201.477 194.689 199.282 203.817 193.876C205.688 192.768 207.509 191.574 209.198 190.203Z"
          id="Fill_10_5"/>
    <path d="M60.8231 161.877C60.8231 161.877 59.2608 150.764 67.012 137.561C74.7632 124.359 77.8009 126.426 86.9412 135.486L131.385 179.541C140.525 188.601 137.57 195.78 124.784 195.575L89.9496 195.017C83.4397 194.913 74.4239 189.98 68.7952 182.381C63.3689 175.054 60.6591 166.298 60.8231 161.877Z"
          id="Fill_10_6"/>
    <path d="M89.8597 138.372C83.8577 142.594 79.9228 149.659 79.9228 157.697C79.9228 170.64 90.1209 181.141 102.718 181.141C110.828 181.141 117.923 176.759 121.967 170.206L89.8597 138.372Z"
          id="Fill_10_7"/>
    <path d="M25.5088 176.124C25.5088 176.124 22.2314 210.364 39.6708 238.119C57.1102 265.875 96.213 288.031 96.213 288.031L178.918 288.385C178.918 288.385 214.968 268.728 232.407 240.663C249.846 212.597 248.676 176.124 248.676 176.124L25.5088 176.124Z"
          id="Fill_10_8"/>
    <path d="M121.334 4.7576L54.3974 59.1361C55.3989 61.0713 56.5512 62.9244 57.8179 64.6789C65.8204 75.763 78.8055 83.0048 93.521 83.0048C117.855 83.0048 137.588 63.2726 137.588 38.9377C137.588 27.4928 133.182 17.1104 126.028 9.27666C124.562 7.67101 123.021 6.13191 121.334 4.7576Z"
          id="Fill_10_9"/>
    <path d="M240.6 259.846C240.483 259.846 240.375 259.904 240.259 259.914C239.933 259.94 239.622 260.019 239.304 260.119C239.171 260.162 239.026 260.148 238.895 260.204C238.789 260.251 238.723 260.339 238.622 260.392C238.477 260.466 238.318 260.488 238.179 260.579C234.504 263.011 227.157 267.866 223.481 270.299C222.549 270.914 221.785 271.885 221.538 273.095C221.417 273.68 221.444 274.259 221.538 274.783C221.641 275.358 221.877 275.909 222.203 276.403C223.56 278.46 226.3 278.999 228.324 277.665C229.266 277.043 230.79 276.033 232.092 275.175C231.23 276.905 230.265 278.605 229.176 280.222C223.114 289.225 215.101 294.204 204.129 294.204C193.141 294.204 185.169 289.212 179.115 280.222C176.966 277.031 175.241 273.543 173.948 270.077C173.502 268.879 173.145 267.772 172.857 266.769C172.754 266.41 172.655 266.112 172.601 265.899C172.575 265.798 172.576 265.797 172.55 265.678C172.082 263.575 170.432 262.078 168.458 261.722C167.8 261.603 167.101 261.619 166.412 261.773C163.677 262.382 161.84 265.071 162.473 267.911C162.568 268.338 162.703 268.89 162.916 269.633C163.277 270.891 163.722 272.24 164.263 273.691C165.817 277.855 167.887 282.031 170.538 285.968C178.19 297.333 189.409 304.571 204.129 304.571C218.83 304.571 230.071 297.352 237.736 285.968C239.395 283.504 240.745 280.935 241.964 278.347C242.537 279.662 243.232 281.235 243.652 282.2C244.638 284.459 247.245 285.455 249.467 284.485C251.726 283.499 252.738 280.892 251.769 278.67C250.001 274.633 246.46 266.56 244.692 262.523C244.631 262.382 244.512 262.267 244.437 262.131C244.385 262.037 244.378 261.932 244.318 261.841C244.253 261.743 244.15 261.693 244.079 261.602C243.854 261.303 243.595 261.057 243.295 260.818C243.111 260.676 242.932 260.553 242.732 260.443C242.569 260.351 242.45 260.206 242.271 260.136C242.118 260.076 241.966 260.09 241.811 260.051C241.564 259.981 241.317 259.957 241.061 259.932C240.908 259.919 240.748 259.845 240.6 259.846Z"
          id="Fill_10_10"/>
    <path d="M172.638 252.614C172.755 252.613 172.863 252.555 172.979 252.544C173.305 252.516 173.615 252.436 173.933 252.335C174.066 252.291 174.212 252.305 174.341 252.247C174.448 252.2 174.513 252.112 174.614 252.058C174.758 251.983 174.917 251.961 175.056 251.868C178.719 249.418 186.041 244.525 189.704 242.074C190.633 241.454 191.392 240.478 191.634 239.268C191.75 238.682 191.721 238.103 191.625 237.58C191.519 237.005 191.279 236.455 190.951 235.964C189.583 233.913 186.84 233.388 184.823 234.733C183.884 235.359 182.365 236.378 181.068 237.242C181.922 235.508 182.878 233.802 183.958 232.18C189.974 223.146 197.962 218.126 208.934 218.07C219.921 218.013 227.919 222.964 234.019 231.923C236.184 235.104 237.926 238.582 239.237 242.042C239.69 243.237 240.052 244.342 240.346 245.344C240.45 245.702 240.551 246 240.606 246.213C240.632 246.314 240.631 246.315 240.658 246.434C241.137 248.533 242.795 250.023 244.77 250.369C245.429 250.484 246.128 250.464 246.816 250.307C249.547 249.683 251.371 246.985 250.724 244.149C250.626 243.722 250.489 243.171 250.271 242.429C249.904 241.173 249.452 239.826 248.903 238.377C247.329 234.222 245.237 230.057 242.566 226.134C234.855 214.808 223.6 207.627 208.881 207.703C194.179 207.778 182.975 215.055 175.369 226.478C173.722 228.951 172.386 231.526 171.179 234.121C170.6 232.809 169.897 231.238 169.472 230.276C168.474 228.022 165.863 227.04 163.646 228.021C161.391 229.019 160.393 231.631 161.374 233.847C163.163 237.875 166.744 245.93 168.533 249.958C168.595 250.099 168.714 250.213 168.79 250.349C168.843 250.442 168.851 250.548 168.911 250.638C168.976 250.736 169.08 250.785 169.151 250.876C169.377 251.174 169.638 251.419 169.939 251.656C170.124 251.797 170.303 251.919 170.504 252.028C170.668 252.119 170.787 252.263 170.966 252.333C171.12 252.392 171.271 252.377 171.427 252.415C171.674 252.484 171.922 252.507 172.177 252.531C172.33 252.543 172.492 252.616 172.638 252.614Z"
          id="Fill_10_11"/>
</defs>
    <g id="Livello-2">
<g opacity="1">
<path d="M8.91311 31.8705L9.40572 31.6349C13.3984 29.7247 19.1554 32.1778 22.2642 37.1139L114.075 182.894C117.184 187.831 116.467 193.381 112.475 195.291L111.982 195.527C107.989 197.437 102.233 194.984 99.1241 190.047L7.31255 44.267C4.20377 39.3308 4.92037 33.7807 8.91311 31.8705Z"
      fill="#adadad" fill-rule="nonzero" opacity="1" stroke="#000000" stroke-linecap="round" stroke-linejoin="round"
      stroke-width="6"/>
    <g opacity="1">
<use fill="none" opacity="1" stroke="#000000" stroke-linecap="round" stroke-linejoin="round" stroke-width="6"
     xlink:href="#Fill_10"/>
        <clipPath id="ClipPath">
<use xlink:href="#Fill_10"/>
</clipPath>
        <g clip-path="url(#ClipPath)">
<path d="M8.91311 31.8705L9.40572 31.6349C13.3984 29.7247 19.1554 32.1778 22.2642 37.1139L114.075 182.894C117.184 187.831 116.467 193.381 112.475 195.291L111.982 195.527C107.989 197.437 102.233 194.984 99.1241 190.047L7.31255 44.267C4.20377 39.3308 4.92037 33.7807 8.91311 31.8705Z"
      fill="none" opacity="1" stroke="#000000" stroke-linecap="round" stroke-linejoin="round" stroke-width="6"/>
</g>
</g>
</g>
        <g opacity="1">
<path d="M89.2986 218.976C115.513 211.509 136.248 185.975 136.959 170.222C137.671 154.469 117.845 156.824 117.845 156.824C117.845 156.824 127.034 135.592 114.603 128.343C102.173 121.094 91.3506 134.019 91.3506 134.019C91.3506 134.019 81.8778 99.1218 56.4849 107.343C31.0921 115.564 45.2858 148.028 45.2858 148.028C45.2858 148.028 31.314 142.836 24.2841 157.924C17.2541 173.011 37.8021 184.253 37.8021 184.253L28.998 197.291C28.998 197.291 63.0841 226.443 89.2986 218.976Z"
      fill="#91d04b" fill-rule="nonzero" opacity="1" stroke="#000000" stroke-linecap="round" stroke-linejoin="round"
      stroke-width="6"/>
            <g opacity="1">
<use fill="none" opacity="1" stroke="#000000" stroke-linecap="round" stroke-linejoin="round" stroke-width="6"
     xlink:href="#Fill_10_2"/>
                <clipPath id="ClipPath_2">
<use xlink:href="#Fill_10_2"/>
</clipPath>
                <g clip-path="url(#ClipPath_2)">
<path d="M89.2986 218.976C115.513 211.509 136.248 185.975 136.959 170.222C137.671 154.469 117.845 156.824 117.845 156.824C117.845 156.824 127.034 135.592 114.603 128.343C102.173 121.094 91.3506 134.019 91.3506 134.019C91.3506 134.019 81.8778 99.1218 56.4849 107.343C31.0921 115.564 45.2858 148.028 45.2858 148.028C45.2858 148.028 31.314 142.836 24.2841 157.924C17.2541 173.011 37.8021 184.253 37.8021 184.253L28.998 197.291C28.998 197.291 63.0841 226.443 89.2986 218.976Z"
      fill="none" opacity="1" stroke="#000000" stroke-linecap="round" stroke-linejoin="round" stroke-width="6"/>
</g>
</g>
</g>
        <g opacity="1">
<path d="M142.327 184.634C165.261 169.904 177.725 139.463 173.85 124.178C169.974 108.892 151.677 116.881 151.677 116.881C151.677 116.881 154.332 93.8986 140.336 90.5547C126.34 87.2108 119.719 102.714 119.719 102.714C119.719 102.714 100.557 72.0486 78.6275 87.2628C56.6979 102.477 79.6748 129.448 79.6748 129.448C79.6748 129.448 64.7983 128.519 62.4328 144.995C60.0672 161.471 82.9886 166.29 82.9886 166.29L78.3317 181.316C78.3317 181.316 119.393 199.364 142.327 184.634Z"
      fill="#49a080" fill-rule="nonzero" opacity="1" stroke="#000000" stroke-linecap="round" stroke-linejoin="round"
      stroke-width="6"/>
            <g opacity="1">
<use fill="none" opacity="1" stroke="#000000" stroke-linecap="round" stroke-linejoin="round" stroke-width="6"
     xlink:href="#Fill_10_3"/>
                <clipPath id="ClipPath_3">
<use xlink:href="#Fill_10_3"/>
</clipPath>
                <g clip-path="url(#ClipPath_3)">
<path d="M142.327 184.634C165.261 169.904 177.725 139.463 173.85 124.178C169.974 108.892 151.677 116.881 151.677 116.881C151.677 116.881 154.332 93.8986 140.336 90.5547C126.34 87.2108 119.719 102.714 119.719 102.714C119.719 102.714 100.557 72.0486 78.6275 87.2628C56.6979 102.477 79.6748 129.448 79.6748 129.448C79.6748 129.448 64.7983 128.519 62.4328 144.995C60.0672 161.471 82.9886 166.29 82.9886 166.29L78.3317 181.316C78.3317 181.316 119.393 199.364 142.327 184.634Z"
      fill="none" opacity="1" stroke="#000000" stroke-linecap="round" stroke-linejoin="round" stroke-width="6"/>
</g>
</g>
</g>
        <g opacity="1">
<path d="M170.261 180.143C149.916 162.004 142.371 129.988 148.592 115.498C154.812 101.007 171.633 111.762 171.633 111.762C171.633 111.762 172.608 88.647 186.955 87.5353C201.302 86.4236 205.415 102.773 205.415 102.773C205.415 102.773 229.141 75.4846 248.418 93.9441C267.696 112.404 240.78 135.446 240.78 135.446C240.78 135.446 255.619 136.857 255.376 153.5C255.133 170.143 231.74 171.314 231.74 171.314L233.987 186.884C233.987 186.884 190.607 198.281 170.261 180.143Z"
      fill="#93d979" fill-rule="nonzero" opacity="1" stroke="#000000" stroke-linecap="round" stroke-linejoin="round"
      stroke-width="6"/>
            <g opacity="1">
<use fill="none" opacity="1" stroke="#000000" stroke-linecap="round" stroke-linejoin="round" stroke-width="6"
     xlink:href="#Fill_10_4"/>
                <clipPath id="ClipPath_4">
<use xlink:href="#Fill_10_4"/>
</clipPath>
                <g clip-path="url(#ClipPath_4)">
<path d="M170.261 180.143C149.916 162.004 142.371 129.988 148.592 115.498C154.812 101.007 171.633 111.762 171.633 111.762C171.633 111.762 172.608 88.647 186.955 87.5353C201.302 86.4236 205.415 102.773 205.415 102.773C205.415 102.773 229.141 75.4846 248.418 93.9441C267.696 112.404 240.78 135.446 240.78 135.446C240.78 135.446 255.619 136.857 255.376 153.5C255.133 170.143 231.74 171.314 231.74 171.314L233.987 186.884C233.987 186.884 190.607 198.281 170.261 180.143Z"
      fill="none" opacity="1" stroke="#000000" stroke-linecap="round" stroke-linejoin="round" stroke-width="6"/>
</g>
</g>
</g>
        <g opacity="1">
<path d="M209.198 190.203L169.617 113.581C167.518 114.167 165.469 114.917 163.493 115.799C151.01 121.372 141.271 132.607 138.27 147.013C133.306 170.836 148.598 194.179 172.421 199.143C183.626 201.477 194.689 199.282 203.817 193.876C205.688 192.768 207.509 191.574 209.198 190.203Z"
      fill="#fc6772" fill-rule="nonzero" opacity="1" stroke="#000000" stroke-linecap="round" stroke-linejoin="round"
      stroke-width="6"/>
            <g opacity="1">
<use fill="none" opacity="1" stroke="#000000" stroke-linecap="round" stroke-linejoin="round" stroke-width="6"
     xlink:href="#Fill_10_5"/>
                <clipPath id="ClipPath_5">
<use xlink:href="#Fill_10_5"/>
</clipPath>
                <g clip-path="url(#ClipPath_5)">
<path d="M209.198 190.203L169.617 113.581C167.518 114.167 165.469 114.917 163.493 115.799C151.01 121.372 141.271 132.607 138.27 147.013C133.306 170.836 148.598 194.179 172.421 199.143C183.626 201.477 194.689 199.282 203.817 193.876C205.688 192.768 207.509 191.574 209.198 190.203Z"
      fill="none" opacity="1" stroke="#000000" stroke-linecap="round" stroke-linejoin="round" stroke-width="6"/>
</g>
</g>
</g>
        <path d="M162.641 148.71L170.444 150.429" fill="none" opacity="1" stroke="#000000" stroke-linecap="round"
              stroke-linejoin="round" stroke-width="6"/>
        <path d="M174.665 164.783L167.783 168.843" fill="none" opacity="1" stroke="#000000" stroke-linecap="round"
              stroke-linejoin="round" stroke-width="6"/>
        <g opacity="1">
<path d="M60.8231 161.877C60.8231 161.877 59.2608 150.764 67.012 137.561C74.7632 124.359 77.8009 126.426 86.9412 135.486L131.385 179.541C140.525 188.601 137.57 195.78 124.784 195.575L89.9496 195.017C83.4397 194.913 74.4239 189.98 68.7952 182.381C63.3689 175.054 60.6591 166.298 60.8231 161.877Z"
      fill="#ffffff" fill-rule="nonzero" opacity="1" stroke="#000000" stroke-linecap="round" stroke-linejoin="round"
      stroke-width="6"/>
            <g opacity="1">
<use fill="none" opacity="1" stroke="#000000" stroke-linecap="round" stroke-linejoin="round" stroke-width="6"
     xlink:href="#Fill_10_6"/>
                <clipPath id="ClipPath_6">
<use xlink:href="#Fill_10_6"/>
</clipPath>
                <g clip-path="url(#ClipPath_6)">
<path d="M60.8231 161.877C60.8231 161.877 59.2608 150.764 67.012 137.561C74.7632 124.359 77.8009 126.426 86.9412 135.486L131.385 179.541C140.525 188.601 137.57 195.78 124.784 195.575L89.9496 195.017C83.4397 194.913 74.4239 189.98 68.7952 182.381C63.3689 175.054 60.6591 166.298 60.8231 161.877Z"
      fill="none" opacity="1" stroke="#000000" stroke-linecap="round" stroke-linejoin="round" stroke-width="6"/>
</g>
</g>
</g>
        <path d="M170.992 123.088C166.376 124.399 162.028 126.418 158.335 129.526C156.404 131.151 154.706 133.01 153.273 135.088C144.448 147.883 147.357 165.916 157.179 177.276C163.385 184.452 172.214 188.8 181.617 189.776C186.36 190.268 191.09 189.912 195.773 189.088C191.089 189.732 186.374 189.911 181.679 189.244C172.584 187.953 164.176 183.465 158.429 176.244C149.598 165.148 147.618 147.991 156.773 136.463C158.149 134.73 159.751 133.163 161.523 131.838C164.676 129.481 168.272 127.976 172.054 126.963C173.119 126.669 173.723 125.559 173.429 124.494C173.135 123.43 172.056 122.794 170.992 123.088Z"
              fill="#000000" fill-rule="nonzero" opacity="1" stroke="#000000" stroke-linecap="round"
              stroke-linejoin="round" stroke-width="6"/>
        <g opacity="1">
<path d="M89.8597 138.372C83.8577 142.594 79.9228 149.659 79.9228 157.697C79.9228 170.64 90.1209 181.141 102.718 181.141C110.828 181.141 117.923 176.759 121.967 170.206L89.8597 138.372Z"
      fill="#fddf19" fill-rule="nonzero" opacity="1" stroke="#000000" stroke-linecap="round" stroke-linejoin="round"
      stroke-width="6"/>
            <g opacity="1">
<use fill="none" opacity="1" stroke="#000000" stroke-linecap="round" stroke-linejoin="round" stroke-width="6"
     xlink:href="#Fill_10_7"/>
                <clipPath id="ClipPath_7">
<use xlink:href="#Fill_10_7"/>
</clipPath>
                <g clip-path="url(#ClipPath_7)">
<path d="M89.8597 138.372C83.8577 142.594 79.9228 149.659 79.9228 157.697C79.9228 170.64 90.1209 181.141 102.718 181.141C110.828 181.141 117.923 176.759 121.967 170.206L89.8597 138.372Z"
      fill="none" opacity="1" stroke="#000000" stroke-linecap="butt" stroke-linejoin="round" stroke-width="6"/>
</g>
</g>
</g>
        <g opacity="1">
<path d="M25.5088 176.124C25.5088 176.124 22.2314 210.364 39.6708 238.119C57.1102 265.875 96.213 288.031 96.213 288.031L178.918 288.385C178.918 288.385 214.968 268.728 232.407 240.663C249.846 212.597 248.676 176.124 248.676 176.124L25.5088 176.124Z"
      fill="#d5eaff" fill-rule="nonzero" opacity="1" stroke="#000000" stroke-linecap="round" stroke-linejoin="round"
      stroke-width="6"/>
            <g opacity="1">
<use fill="none" opacity="1" stroke="#000000" stroke-linecap="round" stroke-linejoin="round" stroke-width="6"
     xlink:href="#Fill_10_8"/>
                <clipPath id="ClipPath_8">
<use xlink:href="#Fill_10_8"/>
</clipPath>
                <g clip-path="url(#ClipPath_8)">
<path d="M25.5088 176.124C25.5088 176.124 22.2314 210.364 39.6708 238.119C57.1102 265.875 96.213 288.031 96.213 288.031L178.918 288.385C178.918 288.385 214.968 268.728 232.407 240.663C249.846 212.597 248.676 176.124 248.676 176.124L25.5088 176.124Z"
      fill="none" opacity="1" stroke="#000000" stroke-linecap="round" stroke-linejoin="round" stroke-width="6"/>
</g>
</g>
</g>
        <path d="M36.0301 207.703L183.694 207.703" fill="none" opacity="1" stroke="#000000" stroke-linecap="round"
              stroke-linejoin="round" stroke-width="6"/>
        <path d="M201.463 207.703L237.55 207.703" fill="none" opacity="1" stroke="#000000" stroke-linecap="round"
              stroke-linejoin="round" stroke-width="6"/>
        <g opacity="1">
<path d="M121.334 4.7576L54.3974 59.1361C55.3989 61.0713 56.5512 62.9244 57.8179 64.6789C65.8204 75.763 78.8055 83.0048 93.521 83.0048C117.855 83.0048 137.588 63.2726 137.588 38.9377C137.588 27.4928 133.182 17.1104 126.028 9.27666C124.562 7.67101 123.021 6.13191 121.334 4.7576Z"
      fill="#fc6772" fill-rule="nonzero" opacity="1" stroke="#000000" stroke-linecap="round" stroke-linejoin="round"
      stroke-width="6"/>
            <g opacity="1">
<use fill="none" opacity="1" stroke="#000000" stroke-linecap="round" stroke-linejoin="round" stroke-width="6"
     xlink:href="#Fill_10_9"/>
                <clipPath id="ClipPath_9">
<use xlink:href="#Fill_10_9"/>
</clipPath>
                <g clip-path="url(#ClipPath_9)">
<path d="M121.334 4.7576L54.3974 59.1361C55.3989 61.0713 56.5512 62.9244 57.8179 64.6789C65.8204 75.763 78.8055 83.0048 93.521 83.0048C117.855 83.0048 137.588 63.2726 137.588 38.9377C137.588 27.4928 133.182 17.1104 126.028 9.27666C124.562 7.67101 123.021 6.13191 121.334 4.7576Z"
      fill="none" opacity="1" stroke="#000000" stroke-linecap="round" stroke-linejoin="round" stroke-width="6"/>
</g>
</g>
</g>
        <path d="M89.1364 55.7289L89.2489 63.7184" fill="none" opacity="1" stroke="#000000" stroke-linecap="round"
              stroke-linejoin="round" stroke-width="6"/>
        <path d="M102.443 50.2382L108.247 55.7289" fill="none" opacity="1" stroke="#000000" stroke-linecap="round"
              stroke-linejoin="round" stroke-width="6"/>
        <path d="M108.247 37.1063L116.237 37.1843" fill="none" opacity="1" stroke="#000000" stroke-linecap="round"
              stroke-linejoin="round" stroke-width="6"/>
        <path d="M221.121 118.759C221.121 118.759 214.224 125.106 208.141 133.27C202.057 141.435 196.788 152.564 196.788 152.564"
              fill="none" opacity="1" stroke="#000000" stroke-linecap="round" stroke-linejoin="round" stroke-width="6"/>
        <path d="M118.405 134.961C118.405 134.961 122.772 143.837 125.535 153.88C128.298 163.924 128.971 176.124 128.971 176.124"
              fill="none" opacity="1" stroke="#000000" stroke-linecap="round" stroke-linejoin="round" stroke-width="6"/>
        <path d="M120.617 14.2438C122.678 18.6735 124.303 23.2567 125.117 28.0876C126.679 37.361 125.07 47.007 119.898 54.9314C112.416 66.3946 97.7234 73.5008 84.2422 69.1501C82.1312 68.4689 80.0822 67.5292 78.2109 66.3376C74.2184 63.7952 71.165 60.233 68.6796 56.2438C68.0886 55.3109 66.8314 55.0278 65.8984 55.6188C64.9654 56.2099 64.6824 57.4359 65.2734 58.3688C68.1371 62.8189 71.6922 66.7235 76.2422 69.4938C78.4118 70.8149 80.7662 71.8643 83.2109 72.5564C97.6025 76.6301 112.873 68.9492 120.679 56.7438C126.125 48.2294 127.682 37.8331 125.648 27.9938C124.651 23.17 122.853 18.6183 120.617 14.2438Z"
              fill="#000000" fill-rule="nonzero" opacity="1" stroke="#000000" stroke-linecap="round"
              stroke-linejoin="round" stroke-width="6"/>
        <path d="M140.926 255C140.926 219.101 170.027 190 205.926 190C241.825 190 270.926 219.101 270.926 255C270.926 290.899 241.825 320 205.926 320C170.027 320 140.926 290.899 140.926 255Z"
              fill="#ffcd38" fill-rule="nonzero" opacity="0.997975" stroke="#000000" stroke-linecap="butt"
              stroke-linejoin="round" stroke-width="6"/>
        <g opacity="0.997975">
<path d="M240.6 259.846C240.483 259.846 240.375 259.904 240.259 259.914C239.933 259.94 239.622 260.019 239.304 260.119C239.171 260.162 239.026 260.148 238.895 260.204C238.789 260.251 238.723 260.339 238.622 260.392C238.477 260.466 238.318 260.488 238.179 260.579C234.504 263.011 227.157 267.866 223.481 270.299C222.549 270.914 221.785 271.885 221.538 273.095C221.417 273.68 221.444 274.259 221.538 274.783C221.641 275.358 221.877 275.909 222.203 276.403C223.56 278.46 226.3 278.999 228.324 277.665C229.266 277.043 230.79 276.033 232.092 275.175C231.23 276.905 230.265 278.605 229.176 280.222C223.114 289.225 215.101 294.204 204.129 294.204C193.141 294.204 185.169 289.212 179.115 280.222C176.966 277.031 175.241 273.543 173.948 270.077C173.502 268.879 173.145 267.772 172.857 266.769C172.754 266.41 172.655 266.112 172.601 265.899C172.575 265.798 172.576 265.797 172.55 265.678C172.082 263.575 170.432 262.078 168.458 261.722C167.8 261.603 167.101 261.619 166.412 261.773C163.677 262.382 161.84 265.071 162.473 267.911C162.568 268.338 162.703 268.89 162.916 269.633C163.277 270.891 163.722 272.24 164.263 273.691C165.817 277.855 167.887 282.031 170.538 285.968C178.19 297.333 189.409 304.571 204.129 304.571C218.83 304.571 230.071 297.352 237.736 285.968C239.395 283.504 240.745 280.935 241.964 278.347C242.537 279.662 243.232 281.235 243.652 282.2C244.638 284.459 247.245 285.455 249.467 284.485C251.726 283.499 252.738 280.892 251.769 278.67C250.001 274.633 246.46 266.56 244.692 262.523C244.631 262.382 244.512 262.267 244.437 262.131C244.385 262.037 244.378 261.932 244.318 261.841C244.253 261.743 244.15 261.693 244.079 261.602C243.854 261.303 243.595 261.057 243.295 260.818C243.111 260.676 242.932 260.553 242.732 260.443C242.569 260.351 242.45 260.206 242.271 260.136C242.118 260.076 241.966 260.09 241.811 260.051C241.564 259.981 241.317 259.957 241.061 259.932C240.908 259.919 240.748 259.845 240.6 259.846Z"
      fill="#ffffff" fill-rule="nonzero" opacity="1" stroke="#000000" stroke-linecap="round" stroke-linejoin="round"
      stroke-width="6"/>
            <g opacity="1">
<use fill="#ffffff" fill-rule="evenodd" opacity="1" stroke="#000000" stroke-linecap="round" stroke-linejoin="round"
     stroke-width="6" xlink:href="#Fill_10_10"/>
                <clipPath id="ClipPath_10">
<use xlink:href="#Fill_10_10"/>
</clipPath>
                <g clip-path="url(#ClipPath_10)">
<path d="M240.6 259.846C240.483 259.846 240.375 259.904 240.259 259.914C239.933 259.94 239.622 260.019 239.304 260.119C239.171 260.162 239.026 260.148 238.895 260.204C238.789 260.251 238.723 260.339 238.622 260.392C238.477 260.466 238.318 260.488 238.179 260.579C234.504 263.011 227.157 267.866 223.481 270.299C222.549 270.914 221.785 271.885 221.538 273.095C221.417 273.68 221.444 274.259 221.538 274.783C221.641 275.358 221.877 275.909 222.203 276.403C223.56 278.46 226.3 278.999 228.324 277.665C229.266 277.043 230.79 276.033 232.092 275.175C231.23 276.905 230.265 278.605 229.176 280.222C223.114 289.225 215.101 294.204 204.129 294.204C193.141 294.204 185.169 289.212 179.115 280.222C176.966 277.031 175.241 273.543 173.948 270.077C173.502 268.879 173.145 267.772 172.857 266.769C172.754 266.41 172.655 266.112 172.601 265.899C172.575 265.798 172.576 265.797 172.55 265.678C172.082 263.575 170.432 262.078 168.458 261.722C167.8 261.603 167.101 261.619 166.412 261.773C163.677 262.382 161.84 265.071 162.473 267.911C162.568 268.338 162.703 268.89 162.916 269.633C163.277 270.891 163.722 272.24 164.263 273.691C165.817 277.855 167.887 282.031 170.538 285.968C178.19 297.333 189.409 304.571 204.129 304.571C218.83 304.571 230.071 297.352 237.736 285.968C239.395 283.504 240.745 280.935 241.964 278.347C242.537 279.662 243.232 281.235 243.652 282.2C244.638 284.459 247.245 285.455 249.467 284.485C251.726 283.499 252.738 280.892 251.769 278.67C250.001 274.633 246.46 266.56 244.692 262.523C244.631 262.382 244.512 262.267 244.437 262.131C244.385 262.037 244.378 261.932 244.318 261.841C244.253 261.743 244.15 261.693 244.079 261.602C243.854 261.303 243.595 261.057 243.295 260.818C243.111 260.676 242.932 260.553 242.732 260.443C242.569 260.351 242.45 260.206 242.271 260.136C242.118 260.076 241.966 260.09 241.811 260.051C241.564 259.981 241.317 259.957 241.061 259.932C240.908 259.919 240.748 259.845 240.6 259.846Z"
      fill="#ffffff" fill-rule="nonzero" opacity="1" stroke="#000000" stroke-linecap="round" stroke-linejoin="round"
      stroke-width="6"/>
</g>
</g>
</g>
        <g opacity="0.997975">
<path d="M172.638 252.614C172.755 252.613 172.863 252.555 172.979 252.544C173.305 252.516 173.615 252.436 173.933 252.335C174.066 252.291 174.212 252.305 174.341 252.247C174.448 252.2 174.513 252.112 174.614 252.058C174.758 251.983 174.917 251.961 175.056 251.868C178.719 249.418 186.041 244.525 189.704 242.074C190.633 241.454 191.392 240.478 191.634 239.268C191.75 238.682 191.721 238.103 191.625 237.58C191.519 237.005 191.279 236.455 190.951 235.964C189.583 233.913 186.84 233.388 184.823 234.733C183.884 235.359 182.365 236.378 181.068 237.242C181.922 235.508 182.878 233.802 183.958 232.18C189.974 223.146 197.962 218.126 208.934 218.07C219.921 218.013 227.919 222.964 234.019 231.923C236.184 235.104 237.926 238.582 239.237 242.042C239.69 243.237 240.052 244.342 240.346 245.344C240.45 245.702 240.551 246 240.606 246.213C240.632 246.314 240.631 246.315 240.658 246.434C241.137 248.533 242.795 250.023 244.77 250.369C245.429 250.484 246.128 250.464 246.816 250.307C249.547 249.683 251.371 246.985 250.724 244.149C250.626 243.722 250.489 243.171 250.271 242.429C249.904 241.173 249.452 239.826 248.903 238.377C247.329 234.222 245.237 230.057 242.566 226.134C234.855 214.808 223.6 207.627 208.881 207.703C194.179 207.778 182.975 215.055 175.369 226.478C173.722 228.951 172.386 231.526 171.179 234.121C170.6 232.809 169.897 231.238 169.472 230.276C168.474 228.022 165.863 227.04 163.646 228.021C161.391 229.019 160.393 231.631 161.374 233.847C163.163 237.875 166.744 245.93 168.533 249.958C168.595 250.099 168.714 250.213 168.79 250.349C168.843 250.442 168.851 250.548 168.911 250.638C168.976 250.736 169.08 250.785 169.151 250.876C169.377 251.174 169.638 251.419 169.939 251.656C170.124 251.797 170.303 251.919 170.504 252.028C170.668 252.119 170.787 252.263 170.966 252.333C171.12 252.392 171.271 252.377 171.427 252.415C171.674 252.484 171.922 252.507 172.177 252.531C172.33 252.543 172.492 252.616 172.638 252.614Z"
      fill="#ffffff" fill-rule="nonzero" opacity="1" stroke="#000000" stroke-linecap="round" stroke-linejoin="round"
      stroke-width="6"/>
            <g opacity="1">
<use fill="#ffffff" fill-rule="evenodd" opacity="1" stroke="#000000" stroke-linecap="round" stroke-linejoin="round"
     stroke-width="6" xlink:href="#Fill_10_11"/>
                <clipPath id="ClipPath_11">
<use xlink:href="#Fill_10_11"/>
</clipPath>
                <g clip-path="url(#ClipPath_11)">
<path d="M172.638 252.614C172.755 252.613 172.863 252.555 172.979 252.544C173.305 252.516 173.615 252.436 173.933 252.335C174.066 252.291 174.212 252.305 174.341 252.247C174.448 252.2 174.513 252.112 174.614 252.058C174.758 251.983 174.917 251.961 175.056 251.868C178.719 249.418 186.041 244.525 189.704 242.074C190.633 241.454 191.392 240.478 191.634 239.268C191.75 238.682 191.721 238.103 191.625 237.58C191.519 237.005 191.279 236.455 190.951 235.964C189.583 233.913 186.84 233.388 184.823 234.733C183.884 235.359 182.365 236.378 181.068 237.242C181.922 235.508 182.878 233.802 183.958 232.18C189.974 223.146 197.962 218.126 208.934 218.07C219.921 218.013 227.919 222.964 234.019 231.923C236.184 235.104 237.926 238.582 239.237 242.042C239.69 243.237 240.052 244.342 240.346 245.344C240.45 245.702 240.551 246 240.606 246.213C240.632 246.314 240.631 246.315 240.658 246.434C241.137 248.533 242.795 250.023 244.77 250.369C245.429 250.484 246.128 250.464 246.816 250.307C249.547 249.683 251.371 246.985 250.724 244.149C250.626 243.722 250.489 243.171 250.271 242.429C249.904 241.173 249.452 239.826 248.903 238.377C247.329 234.222 245.237 230.057 242.566 226.134C234.855 214.808 223.6 207.627 208.881 207.703C194.179 207.778 182.975 215.055 175.369 226.478C173.722 228.951 172.386 231.526 171.179 234.121C170.6 232.809 169.897 231.238 169.472 230.276C168.474 228.022 165.863 227.04 163.646 228.021C161.391 229.019 160.393 231.631 161.374 233.847C163.163 237.875 166.744 245.93 168.533 249.958C168.595 250.099 168.714 250.213 168.79 250.349C168.843 250.442 168.851 250.548 168.911 250.638C168.976 250.736 169.08 250.785 169.151 250.876C169.377 251.174 169.638 251.419 169.939 251.656C170.124 251.797 170.303 251.919 170.504 252.028C170.668 252.119 170.787 252.263 170.966 252.333C171.12 252.392 171.271 252.377 171.427 252.415C171.674 252.484 171.922 252.507 172.177 252.531C172.33 252.543 172.492 252.616 172.638 252.614Z"
      fill="#ffffff" fill-rule="nonzero" opacity="1" stroke="#000000" stroke-linecap="round" stroke-linejoin="round"
      stroke-width="6"/>
</g>
</g>
</g>
</g>
</svg>
