<svg clip-rule="evenodd" stroke-linecap="round" stroke-linejoin="round" stroke-miterlimit="10" viewBox="0 0 1400 200"
     xmlns="http://www.w3.org/2000/svg">
    <defs>
        <clipPath id="a">
            <path d="M0 0h382.89v222H0z"/>
        </clipPath>
        <clipPath id="b">
            <path d="M382.89 0h457.19v264.67H382.89z"/>
        </clipPath>
        <clipPath id="c">
            <path d="M840.08 0h553.89v264.67H840.08z"/>
        </clipPath>
    </defs>
    <path d="M63.847 193.02H49.95v-58.873l-51.153-77.79H16.17l40.727 64.472 40.728-64.48h17.373l-51.152 77.79v58.87zm121.993-45.16c0-5.02-.804-9.716-2.413-14.09s-3.893-8.172-6.852-11.39c-2.96-3.216-6.53-5.758-10.713-7.624s-8.912-2.8-14.188-2.8-10.005.934-14.187 2.8-7.72 4.408-10.616 7.625c-2.89 3.22-5.14 7.02-6.75 11.39-1.61 4.38-2.41 9.07-2.41 14.09s.805 9.72 2.414 14.09c1.608 4.38 3.86 8.18 6.756 11.39 2.895 3.22 6.434 5.76 10.616 7.63s8.91 2.8 14.187 2.8 10.004-.93 14.186-2.8 7.75-4.41 10.71-7.622c2.96-3.217 5.24-7.013 6.85-11.39s2.41-9.07 2.41-14.09zm13.898 0c0 6.82-1.19 13.126-3.57 18.917-2.382 5.79-5.696 10.81-9.942 15.055-4.247 4.247-9.298 7.56-15.153 9.94-5.855 2.382-12.32 3.572-19.4 3.572-6.948 0-13.35-1.19-19.205-3.57-5.855-2.38-10.906-5.695-15.152-9.942-4.247-4.246-7.56-9.265-9.94-15.055-2.38-5.79-3.572-12.097-3.572-18.917s1.19-13.126 3.57-18.916c2.382-5.79 5.695-10.81 9.942-15.056 4.246-4.247 9.297-7.56 15.152-9.94s12.257-3.572 19.206-3.572c7.078 0 13.544 1.19 19.4 3.57s10.905 5.695 15.152 9.942c4.246 4.246 7.56 9.265 9.94 15.056 2.38 5.79 3.572 12.096 3.572 18.916zm88.402 45.16c-.257-2.445-.418-4.858-.483-7.24-.064-2.38-.096-4.792-.096-7.237h-.38c-1.412 2.445-3.213 4.697-5.4 6.756-2.187 2.05-4.63 3.82-7.335 5.3-2.702 1.48-5.565 2.64-8.59 3.473-3.023.836-6.015 1.254-8.975 1.254-11.58 0-20.14-3.056-25.67-9.168-5.536-6.114-8.3-14.83-8.3-26.156v-57.33h12.74v49.995c0 5.017.383 9.457 1.155 13.317.77 3.86 2.09 7.11 3.957 9.75s4.377 4.634 7.53 5.985c3.153 1.35 7.11 2.027 11.87 2.027.645 0 2.446-.258 5.406-.77s6.08-1.93 9.365-4.248c3.28-2.316 6.21-5.79 8.78-10.423 2.576-4.63 3.86-11.066 3.86-19.3v-46.33h12.74v70.453c0 2.445.1 5.534.29 9.266.195 3.73.42 7.27.678 10.615h-13.13zm43.43-62.15c0-3.99-.097-8.043-.29-12.16s-.354-9.46-.482-16.022h12.546v16.793h.386c.9-2.44 2.188-4.79 3.86-7.04s3.7-4.28 6.08-6.08c2.382-1.8 5.148-3.25 8.3-4.34 3.154-1.092 6.725-1.64 10.714-1.64 3.603 0 6.756.387 9.458 1.16l-2.51 12.547c-1.672-.643-4.117-.964-7.334-.964-4.89 0-9.072.933-12.547 2.798-3.47 1.868-6.37 4.25-8.68 7.144-2.312 2.896-4.02 6.016-5.11 9.36s-1.64 6.564-1.64 9.65v50.96h-12.74v-62.16z"
          clip-path="url(#a)"/>
    <path d="M416.82 193.02h-13.898V56.36h82.422V69.1H416.82v46.52h63.698v12.74H416.82v64.662zm166.19-45.16c0-5.02-.805-9.716-2.413-14.09-1.61-4.376-3.893-8.172-6.853-11.39-2.96-3.216-6.53-5.758-10.713-7.624-4.18-1.866-8.91-2.8-14.18-2.8s-10.002.934-14.184 2.8-7.72 4.408-10.617 7.625c-2.895 3.22-5.147 7.02-6.755 11.39-1.61 4.38-2.413 9.07-2.413 14.09s.804 9.72 2.413 14.09c1.607 4.38 3.86 8.18 6.754 11.39 2.896 3.22 6.435 5.76 10.617 7.63s8.91 2.8 14.19 2.8 10.004-.93 14.186-2.8c4.185-1.863 7.756-4.41 10.715-7.622 2.96-3.217 5.243-7.013 6.852-11.39 1.607-4.373 2.412-9.07 2.412-14.09zm13.897 0c0 6.82-1.19 13.126-3.57 18.917-2.38 5.79-5.695 10.81-9.94 15.055-4.248 4.247-9.3 7.56-15.154 9.94-5.855 2.382-12.32 3.572-19.4 3.572-6.948 0-13.35-1.19-19.205-3.57-5.855-2.38-10.906-5.695-15.152-9.942-4.247-4.246-7.56-9.265-9.94-15.055-2.382-5.79-3.572-12.097-3.572-18.917s1.19-13.126 3.57-18.916c2.382-5.79 5.695-10.81 9.942-15.056 4.246-4.247 9.297-7.56 15.152-9.94s12.257-3.572 19.206-3.572c7.078 0 13.544 1.19 19.4 3.57s10.905 5.695 15.152 9.942c4.246 4.246 7.56 9.265 9.94 15.056 2.38 5.79 3.57 12.096 3.57 18.916zm100.573 0c0-5.02-.804-9.716-2.413-14.09-1.608-4.376-3.892-8.172-6.852-11.39s-6.53-5.758-10.713-7.624-8.91-2.8-14.187-2.8-10.005.934-14.187 2.8c-4.183 1.866-7.72 4.408-10.617 7.625-2.89 3.22-5.14 7.02-6.75 11.39-1.61 4.38-2.41 9.07-2.41 14.09s.806 9.72 2.41 14.09c1.61 4.38 3.86 8.18 6.76 11.39 2.896 3.22 6.434 5.76 10.617 7.63 4.183 1.87 8.91 2.8 14.188 2.8s10.007-.93 14.19-2.8 7.752-4.41 10.712-7.622 5.245-7.013 6.853-11.39c1.61-4.373 2.41-9.07 2.41-14.09zm13.898 0c0 6.82-1.19 13.126-3.57 18.917-2.38 5.79-5.695 10.81-9.942 15.055-4.246 4.247-9.297 7.56-15.152 9.94-5.855 2.382-12.322 3.572-19.4 3.572-6.948 0-13.35-1.19-19.205-3.57-5.86-2.38-10.91-5.695-15.16-9.942-4.25-4.246-7.56-9.265-9.94-15.055-2.38-5.79-3.57-12.097-3.57-18.917s1.19-13.126 3.57-18.916c2.38-5.79 5.69-10.81 9.94-15.056 4.244-4.247 9.3-7.56 15.15-9.94s12.256-3.572 19.205-3.572c7.077 0 13.544 1.19 19.4 3.57s10.905 5.695 15.15 9.942c4.25 4.246 7.562 9.265 9.942 15.056 2.38 5.79 3.57 12.096 3.57 18.916zm30.882 0c0 5.02.804 9.716 2.413 14.09 1.608 4.376 3.893 8.172 6.852 11.39 2.96 3.216 6.53 5.758 10.713 7.624s8.91 2.8 14.187 2.8c5.148 0 9.94-.934 14.38-2.8 4.44-1.866 8.27-4.408 11.486-7.625s5.73-7.02 7.53-11.39c1.8-4.38 2.7-9.07 2.7-14.09s-.9-9.72-2.7-14.09c-1.8-4.38-4.31-8.18-7.53-11.39s-7.04-5.76-11.48-7.63-9.23-2.8-14.38-2.8c-5.272 0-10 .93-14.19 2.8s-7.75 4.41-10.71 7.622c-2.96 3.217-5.24 7.013-6.85 11.39-1.61 4.373-2.412 9.07-2.412 14.09zm82.422 45.168h-12.74v-15.056h-.386c-2.06 3.088-4.504 5.726-7.335 7.914s-5.79 3.99-8.87 5.405c-3.09 1.42-6.272 2.45-9.554 3.09-3.28.65-6.402.97-9.362.97-7.076 0-13.542-1.19-19.4-3.57-5.853-2.38-10.903-5.692-15.15-9.94-4.247-4.245-7.56-9.264-9.94-15.054-2.38-5.79-3.57-12.097-3.57-18.917s1.19-13.126 3.57-18.916c2.38-5.79 5.693-10.81 9.94-15.055 4.247-4.247 9.297-7.56 15.152-9.94s12.32-3.57 19.4-3.57c2.96 0 6.08.32 9.36.963 3.283.644 6.468 1.674 9.556 3.09 3.09 1.415 6.05 3.217 8.88 5.404 2.83 2.188 5.276 4.826 7.335 7.914h.385V47.1h12.74v145.93z"
          clip-path="url(#b)" fill="#ec0014"/>
    <path d="M972.64 171.41c-2.316 3.475-5.18 6.756-8.59 9.844-3.41 3.09-7.302 5.76-11.677 8.01s-9.105 4.022-14.188 5.31c-5.082 1.286-10.455 1.93-16.117 1.93-10.166 0-19.592-1.802-28.278-5.405s-16.214-8.59-22.584-14.96-11.356-13.93-14.96-22.68c-3.603-8.76-5.404-18.34-5.404-28.77s1.8-20.01 5.404-28.76 8.59-16.31 14.96-22.68c6.37-6.37 13.898-11.358 22.584-14.96 8.686-3.605 18.112-5.407 28.278-5.407 8.493 0 16.986 1.673 25.48 5.02 8.492 3.345 15.763 8.88 21.81 16.6l-12.16 9.07c-1.415-2.186-3.345-4.374-5.79-6.56-2.445-2.19-5.244-4.12-8.397-5.79s-6.53-3.027-10.13-4.056c-3.6-1.03-7.2-1.544-10.81-1.544-8.75 0-16.6 1.61-23.55 4.827s-12.83 7.53-17.66 12.934-8.52 11.677-11.1 18.82c-2.57 7.14-3.86 14.636-3.86 22.486s1.29 15.346 3.86 22.487c2.58 7.142 6.28 13.416 11.1 18.82 4.83 5.405 10.718 9.716 17.66 12.933s14.8 4.826 23.55 4.826c3.607 0 7.178-.323 10.717-.966 3.54-.644 7.015-1.738 10.425-3.282s6.627-3.635 9.65-6.273 5.824-5.953 8.398-9.94l11.388 8.105zm96.16-23.55c0-5.02-.81-9.716-2.42-14.09-1.6-4.376-3.89-8.172-6.85-11.39s-6.53-5.758-10.71-7.624-8.91-2.8-14.19-2.8c-5.27 0-10 .934-14.19 2.8-4.18 1.866-7.72 4.408-10.61 7.625-2.9 3.22-5.15 7.02-6.76 11.39s-2.41 9.07-2.41 14.09.8 9.72 2.41 14.09 3.86 8.18 6.76 11.39c2.89 3.22 6.43 5.76 10.61 7.63 4.19 1.87 8.92 2.8 14.19 2.8 5.28 0 10.01-.93 14.19-2.8s7.75-4.41 10.71-7.622 5.25-7.013 6.85-11.39c1.61-4.373 2.42-9.07 2.42-14.09zm13.89 0c0 6.82-1.19 13.126-3.57 18.917-2.38 5.79-5.69 10.81-9.94 15.055-4.24 4.247-9.29 7.56-15.15 9.94-5.85 2.382-12.32 3.572-19.4 3.572-6.95 0-13.35-1.19-19.2-3.57-5.86-2.38-10.91-5.695-15.16-9.942-4.244-4.246-7.557-9.265-9.938-15.055-2.38-5.79-3.57-12.097-3.57-18.917s1.19-13.126 3.57-18.916c2.38-5.79 5.694-10.81 9.938-15.056 4.25-4.247 9.3-7.56 15.16-9.94 5.85-2.382 12.25-3.572 19.2-3.572 7.08 0 13.55 1.19 19.4 3.57 5.86 2.382 10.91 5.695 15.15 9.942 4.25 4.246 7.56 9.265 9.94 15.056 2.38 5.79 3.57 12.096 3.57 18.916zm74.51.19c-3.21 0-7.24.16-12.06.483-4.83.32-9.46 1.093-13.9 2.316-4.44 1.22-8.24 3.12-11.39 5.69-3.15 2.57-4.73 6.11-4.73 10.61 0 2.96.61 5.5 1.84 7.624 1.22 2.123 2.86 3.86 4.92 5.212s4.34 2.315 6.85 2.894 5.05.87 7.63.87c4.63 0 8.65-.77 12.06-2.316 3.41-1.542 6.27-3.633 8.59-6.27s4.02-5.727 5.11-9.266c1.1-3.54 1.65-7.303 1.65-11.29v-6.564h-6.57zm6.57-10.423v-2.317c0-15.57-7.73-23.356-23.17-23.356-10.55 0-19.75 3.54-27.6 10.617l-7.72-9.07c8.49-8.75 21.23-13.12 38.22-13.12 4.37 0 8.59.645 12.64 1.93s7.56 3.25 10.52 5.89 5.34 5.952 7.14 9.94 2.7 8.752 2.7 14.285v40.34c0 3.477.17 7.11.49 10.908s.67 6.918 1.06 9.363h-12.35c-.39-2.19-.68-4.57-.87-7.144-.2-2.574-.29-5.083-.29-7.53h-.39c-3.73 6.05-8.14 10.39-13.22 13.03s-11.29 3.957-18.63 3.957c-3.99 0-7.85-.547-11.58-1.64-3.73-1.094-7.04-2.767-9.94-5.02s-5.21-5.02-6.95-8.3c-1.74-3.282-2.6-7.11-2.6-11.485 0-7.335 1.89-13.094 5.69-17.276s8.56-7.303 14.28-9.36c5.73-2.06 11.84-3.347 18.34-3.86s12.45-.774 17.86-.774h6.37zm108.03-13.707c-2.19-3.346-5.24-6.177-9.17-8.493-3.92-2.316-8.4-3.475-13.41-3.475-5.28-.128-10.01.708-14.19 2.51-4.18 1.8-7.76 4.31-10.72 7.528-2.95 3.217-5.21 7.045-6.75 11.485-1.55 4.44-2.32 9.233-2.32 14.38s.77 9.94 2.32 14.38c1.54 4.44 3.8 8.268 6.75 11.485 2.96 3.218 6.54 5.727 10.72 7.528 4.18 1.802 8.91 2.638 14.19 2.51 5.01 0 9.49-1.158 13.41-3.475 3.93-2.316 6.98-5.147 9.17-8.493l10.42 7.914c-4.5 5.276-9.58 9.17-15.25 11.678-5.66 2.51-11.58 3.83-17.75 3.957-7.34.12-13.97-1-19.89-3.38s-10.97-5.7-15.15-9.94c-4.18-4.25-7.37-9.3-9.55-15.16-2.19-5.856-3.29-12.194-3.29-19.014s1.1-13.158 3.29-19.013c2.18-5.855 5.37-10.906 9.55-15.15 4.18-4.25 9.23-7.56 15.15-9.94s12.55-3.51 19.89-3.38c6.17.13 12.09 1.45 17.75 3.956 5.67 2.51 10.75 6.402 15.25 11.68l-10.42 7.913zm27.2-76.822h12.74v70.068h.38c1.42-2.445 3.22-4.697 5.41-6.756 2.18-2.06 4.63-3.828 7.33-5.308s5.57-2.638 8.59-3.474c3.02-.837 6.02-1.255 8.98-1.255 11.58 0 20.14 3.056 25.67 9.17 5.53 6.11 8.3 14.83 8.3 26.154v57.328h-12.74V143.03c0-10.036-1.74-17.725-5.21-23.065-3.48-5.34-9.91-8.01-19.31-8.01-.64 0-2.44.257-5.4.772-2.96.514-6.08 1.93-9.36 4.246s-6.21 5.79-8.78 10.423c-2.58 4.633-3.86 11.067-3.86 19.303v46.32H1299V47.09z"
          clip-path="url(#c)"/>
</svg>