<?xml version="1.0" encoding="UTF-8"?>
<svg xmlns:xlink="http://www.w3.org/1999/xlink" clip-rule="evenodd" stroke-linecap="round" stroke-linejoin="round"
     stroke-miterlimit="10"
     version="1.1" viewBox="0 0 500 400" xml:space="preserve"
     xmlns="http://www.w3.org/2000/svg">
<defs>
<path id="l"
      d="m94.25 38.873 0.6165-0.295c4.9975-2.3909 12.203 0.6795 16.095 6.8578l114.92 182.46c3.891 6.178 2.994 13.125-2.004 15.516l-0.616 0.295c-4.998 2.391-12.203-0.68-16.094-6.858l-114.92-182.46c-3.891-6.1783-2.9941-13.125 2.0034-15.516z"/>
    <path id="h"
          d="m194.86 273.06c32.811-9.346 58.764-41.306 59.655-61.023 0.89-19.717-23.924-16.769-23.924-16.769s11.5-26.575-4.058-35.648c-15.559-9.074-29.105 7.105-29.105 7.105s-11.857-43.679-43.639-33.389c-31.783 10.29-14.018 50.923-14.018 50.923s-17.487-6.499-26.286 12.385 16.92 32.956 16.92 32.956l-11.02 16.318s42.664 36.488 75.475 27.142z"/>
    <path id="g"
          d="m266.78 230.08c28.705-18.437 44.305-56.538 39.455-75.669-4.85-19.132-27.752-9.133-27.752-9.133s3.323-28.766-14.195-32.951-25.806 15.22-25.806 15.22-23.983-38.383-51.431-19.34c-27.448 19.042 1.311 52.801 1.311 52.801s-18.62-1.163-21.581 19.459 25.728 26.653 25.728 26.653l-5.828 18.808s51.393 22.588 80.099 4.152z"/>
    <path id="f"
          d="m296.2 224.46c-25.466-22.703-34.909-62.776-27.123-80.913 7.785-18.137 28.839-4.676 28.839-4.676s1.221-28.931 19.179-30.322c17.957-1.392 23.104 19.071 23.104 19.071s29.697-34.154 53.825-11.05c24.129 23.105-9.56 51.945-9.56 51.945s18.572 1.766 18.269 22.598c-0.304 20.831-29.584 22.297-29.584 22.297l2.813 19.488s-54.297 14.265-79.762-8.438z"/>
    <path id="e"
          d="m344.94 237.05-49.542-95.903c-2.627 0.733-5.192 1.672-7.665 2.776-15.625 6.976-27.813 21.038-31.57 39.069-6.213 29.819 12.927 59.035 42.745 65.248 14.024 2.922 27.871 0.174 39.296-6.592 2.342-1.387 4.621-2.881 6.736-4.598z"/>
    <path id="d"
          d="m159.22 201.6s-1.956-13.91 7.746-30.435 13.504-13.937 24.944-2.597l55.628 55.14c11.441 11.34 7.742 20.326-8.261 20.069l-43.602-0.698c-8.147-0.13-19.432-6.304-26.477-15.816-6.792-9.17-10.184-20.13-9.978-25.663z"/>
    <path id="c"
          d="m195.57 172.18c-7.512 5.284-12.437 14.127-12.437 24.188 0 16.2 12.764 29.344 28.531 29.344 10.152 0 19.032-5.486 24.094-13.688l-40.188-39.844z"/>
    <path id="b"
          d="m115.02 219.43s-4.102 42.857 17.725 77.597c21.828 34.74 70.771 62.471 70.771 62.471l103.52 0.444s45.121-24.604 66.949-59.732 20.363-80.78 20.363-80.78h-279.33z"/>
    <path id="a"
          d="m234.96 4.9377-83.781 68.063c1.253 2.4221 2.696 4.7415 4.281 6.9375 10.016 13.873 26.269 22.937 44.688 22.937 30.458 0 55.156-24.698 55.156-55.156 0-14.325-5.514-27.32-14.469-37.125-1.835-2.0097-3.763-3.9361-5.875-5.6562z"/>
    <path id="k"
          d="m68.817 246.05c-30.342 0-54.938 31.997-54.938 71.469s24.595 71.469 54.938 71.469c10.934 0 21.097-4.213 29.656-11.375 8.5627 7.169 18.717 11.375 29.657 11.375 30.342 0 54.968-31.997 54.968-71.469s-24.626-71.469-54.968-71.469c-10.945 0-21.092 4.2-29.657 11.375-8.5618-7.167-18.718-11.375-29.656-11.375z"/>
    <path id="j"
          d="m105.28 235.82c-7.4854-2.824-6.815-12.603 1.498-21.843 8.312-9.24 21.12-14.442 28.605-11.618 7.486 2.824 6.816 12.604-1.497 21.844s-21.12 14.441-28.606 11.617z"/>
    <path id="i"
          d="m464.25 148.15c-7.101 0.963-16.095 11.057-21.405 24.658-1.126 2.882-1.933 5.691-2.573 8.414-15.085 9.613-32.009 38.57-42.635 75.698-4.275 14.94-6.874 29.331-8.187 42.567-15.606 6.705-31.117 17.854-41.816 31.436-0.606 0.77-0.989 1.515-1.55 2.279-18.352-1.768-38.739-1.14-56.494 2.396-34.141 6.8-45.48 21.581-25.324 33.014 17.777 10.083 54.102 14.176 85.854 10.342 1.51 0.445 3.087 0.817 4.825 1.052 18.029 2.443 42.754-7.559 61.729-23.577 15.301-9.027 32.678-38.343 43.511-76.195 10.742-37.534 11.973-72.647 4.503-90.394 1.777-2.958 3.447-6.229 4.825-9.758 6.069-15.543 4.996-29.773-2.368-31.786-0.921-0.252-1.881-0.284-2.895-0.146z"/>
</defs>

    <g opacity=".97479">
<use fill="#adadad" xlink:href="#l"/>
        <mask id="x" x="89.8265" y="37.7668" width="138.469" height="206.757" maskUnits="userSpaceOnUse">
<rect x="89.826" y="37.767" width="138.47" height="206.76"/>
            <use fill="#ffffff" fill-rule="evenodd" xlink:href="#l"/>
</mask>
        <use fill="none" mask="url(#x)" stroke="#000000" stroke-linecap="round" stroke-linejoin="round"
             stroke-width="8.7902" xlink:href="#l"/>
</g>
    <g>
<use fill="#91d04b" xlink:href="#h"/>
        <mask id="t" x="111.655" y="131.768" width="142.887" height="142.825" maskUnits="userSpaceOnUse">
<rect x="111.66" y="131.77" width="142.89" height="142.82"/>
            <use fill="#ffffff" fill-rule="evenodd" xlink:href="#h"/>
</mask>
        <use fill="none" mask="url(#t)" stroke="#000000" stroke-linecap="round" stroke-linejoin="round"
             stroke-width="14.89" xlink:href="#h"/>
</g>
    <g>
<use fill="#49a080" xlink:href="#g"/>
        <mask id="s" x="166.564" y="102.903" width="140.544" height="134.415" maskUnits="userSpaceOnUse">
<rect x="166.56" y="102.9" width="140.54" height="134.42"/>
            <use fill="#ffffff" fill-rule="evenodd" xlink:href="#g"/>
</mask>
        <use fill="none" mask="url(#s)" stroke="#000000" stroke-linecap="round" stroke-linejoin="round"
             stroke-width="14.89" xlink:href="#g"/>
</g>
    <g>
<use fill="#93d979" xlink:href="#f"/>
        <mask id="r" x="266.425" y="108.478" width="136.312" height="128.84" maskUnits="userSpaceOnUse">
<rect x="266.42" y="108.48" width="136.31" height="128.84"/>
            <use fill="#ffffff" fill-rule="evenodd" xlink:href="#f"/>
</mask>
        <use fill="none" mask="url(#r)" stroke="#000000" stroke-linecap="round" stroke-linejoin="round"
             stroke-width="14.89" xlink:href="#f"/>
</g>
    <g opacity=".97479">
<use fill="#fc6772" xlink:href="#e"/>
        <mask id="q" x="254.988" y="141.145" width="89.9477" height="108.252" maskUnits="userSpaceOnUse">
<rect x="254.99" y="141.14" width="89.948" height="108.25"/>
            <use fill="#ffffff" fill-rule="evenodd" xlink:href="#e"/>
</mask>
        <use fill="none" mask="url(#q)" stroke="#000000" stroke-linecap="round" stroke-linejoin="round"
             stroke-width="16.765" xlink:href="#e"/>
</g>
    <path d="m286.66 185.11 9.766 2.151" fill="none" stroke="#000" stroke-linecap="round" stroke-linejoin="round"
          stroke-width="8.7"/>
    <path d="m301.71 205.23-8.613 5.082" fill="none" stroke="#000" stroke-linecap="round" stroke-linejoin="round"
          stroke-width="8.7"/>
    <g>
<use fill="#ffffff" xlink:href="#d"/>
        <mask id="p" x="159.061" y="159.412" width="95.1257" height="84.3658" maskUnits="userSpaceOnUse">
<rect x="159.06" y="159.41" width="95.126" height="84.366"/>
            <use fill="#ffffff" fill-rule="evenodd" xlink:href="#d"/>
</mask>
        <use fill="none" mask="url(#p)" stroke="#000000" stroke-linecap="round" stroke-linejoin="round"
             stroke-width="14.88" xlink:href="#d"/>
</g>
    <g opacity=".97479">
<path d="m297.25 153.53c-5.713 1.614-11.081 4.102-15.656 7.938-2.39 2.003-4.504 4.313-6.282 6.875-11.005 15.86-7.487 38.25 4.657 52.406 7.71 8.988 18.707 14.426 30.437 15.688 5.931 0.637 11.857 0.227 17.719-0.782-5.862 0.828-11.774 1.062-17.656 0.25-11.422-1.577-21.999-7.155-29.25-16.187-11.224-13.981-13.805-35.606-2.281-50.219 1.74-2.207 3.783-4.187 6.031-5.875 3.99-2.997 8.55-4.926 13.343-6.219 1.065-0.294 1.67-1.404 1.376-2.468-0.295-1.065-1.373-1.701-2.438-1.407z"/>
</g>
    <g>
<use fill="#fddf19" xlink:href="#c"/>
        <mask id="o" x="183.129" y="172.175" width="52.625" height="53.5312" maskUnits="userSpaceOnUse">
<rect x="183.13" y="172.18" width="52.625" height="53.531"/>
            <use fill="#ffffff" fill-rule="evenodd" xlink:href="#c"/>
</mask>
        <use fill="none" mask="url(#o)" stroke="#000000" stroke-linecap="butt" stroke-linejoin="round"
             stroke-width="14.89" xlink:href="#c"/>
</g>
    <g>
<use fill="#d5eaff" xlink:href="#b"/>
        <mask id="n" x="114.716" y="219.426" width="279.653" height="140.511" maskUnits="userSpaceOnUse">
<rect x="114.72" y="219.43" width="279.65" height="140.51"/>
            <use fill="#ffffff" fill-rule="evenodd" xlink:href="#b"/>
</mask>
        <use fill="none" mask="url(#n)" stroke="#000000" stroke-linecap="round" stroke-linejoin="round"
             stroke-width="21.726" xlink:href="#b"/>
</g>
    <path d="m124.15 258.95h188.87" fill="none" stroke="#000" stroke-linecap="round" stroke-linejoin="round"
          stroke-width="10.863"/>
    <path d="m335.25 258.95h49.211" fill="none" stroke="#000" stroke-linecap="round" stroke-linejoin="round"
          stroke-width="10.863"/>
    <g opacity=".97479">
<use fill="#fc6772" xlink:href="#a"/>
        <mask id="m" x="151.18" y="4.93767" width="104.125" height="97.9375" maskUnits="userSpaceOnUse">
<rect x="151.18" y="4.9377" width="104.12" height="97.938"/>
            <use fill="#ffffff" fill-rule="evenodd" xlink:href="#a"/>
</mask>
        <use fill="none" mask="url(#m)" stroke="#000000" stroke-linecap="round" stroke-linejoin="round"
             stroke-width="16.765" xlink:href="#a"/>
</g>
    <path d="m194.66 68.736 0.14 10" fill="none" stroke="#000" stroke-linecap="round" stroke-linejoin="round"
          stroke-width="8.7"/>
    <path d="m211.32 61.863 7.266 6.8723" fill="none" stroke="#000" stroke-linecap="round" stroke-linejoin="round"
          stroke-width="8.7"/>
    <path d="m218.58 45.427 10 0.0976" fill="none" stroke="#000" stroke-linecap="round" stroke-linejoin="round"
          stroke-width="8.7"/>
    <path d="m359.86 147.63s-8.633 7.944-16.247 18.163c-7.614 10.22-14.21 24.149-14.21 24.149" fill="none"
          opacity=".97479" stroke="#000" stroke-linecap="round" stroke-linejoin="round" stroke-width="4.3951"/>
    <path d="m365.9 211.77s-16.352-16.024-29.126-24.111c-12.773-8.087-29.131-8.237-29.131-8.237" fill="none" opacity="0"
          stroke="#000" stroke-linecap="round" stroke-linejoin="round" stroke-width="4.3951"/>
    <path d="m231.3 168.94s5.466 11.109 8.924 23.68c3.458 12.57 4.301 27.841 4.301 27.841" fill="none" opacity=".97479"
          stroke="#000" stroke-linecap="round" stroke-linejoin="round" stroke-width="4.3951"/>
    <g opacity=".97479">
<path d="m234.06 16.812c2.602 5.5374 4.646 11.267 5.688 17.312 2.004 11.632 0.012 23.746-6.438 33.719-9.382 14.508-27.871 23.545-44.906 18.125-2.684-0.8541-5.276-2.0548-7.656-3.5626-5.067-3.2106-8.967-7.6988-12.125-12.75-0.591-0.9329-1.848-1.216-2.781-0.625-0.933 0.5911-1.185 1.8171-0.594 2.75 3.536 5.5121 7.906 10.374 13.531 13.813 2.678 1.6371 5.576 2.9163 8.594 3.7812 17.853 5.1161 36.843-4.3528 46.594-19.469 6.838-10.6 8.806-23.587 6.312-35.875-1.225-6.0385-3.442-11.736-6.219-17.219z"/>
</g>


    <g>
<use fill="#ec0014" xlink:href="#k"/>
        <mask id="w" x="13.8796" y="246.054" width="169.219" height="142.937" maskUnits="userSpaceOnUse">
<rect x="13.88" y="246.05" width="169.22" height="142.94"/>
            <use fill="#ffffff" fill-rule="evenodd" xlink:href="#k"/>
</mask>
        <use fill="none" mask="url(#w)" stroke="#000000" stroke-linecap="butt" stroke-linejoin="round" stroke-width="20"
             xlink:href="#k"/>
</g>
    <path d="m62.558 273.45s-9.3153 3.31-14.732 10.692c-5.4165 7.382-6.934 18.835-6.934 18.835" fill="none"
          opacity=".97816" stroke="#000" stroke-linecap="round" stroke-linejoin="round" stroke-width="10"/>
    <path d="m76.823 223.81s9.3154 3.311 14.732 10.693 6.934 18.835 6.934 18.835" fill="none" opacity=".97816"
          stroke="#000" stroke-linecap="round" stroke-linejoin="round" stroke-width="10"/>
    <g opacity=".97816">
<use fill="#6fd907" xlink:href="#j"/>
        <mask id="v" x="100.075" y="201.595" width="40.5101" height="34.9981" maskUnits="userSpaceOnUse">
<rect x="100.08" y="201.6" width="40.51" height="34.998"/>
            <use fill="#ffffff" fill-rule="evenodd" xlink:href="#j"/>
</mask>
        <use fill="none" mask="url(#v)" stroke="#6fd907" stroke-linecap="butt" stroke-linejoin="round" stroke-width="20"
             xlink:href="#j"/>
</g>
    <path d="m143.29 199.61s-16.438 1.776-27.918 10.212c-11.479 8.435-18 23.529-18 23.529" fill="none" opacity=".97816"
          stroke="#000" stroke-linecap="round" stroke-linejoin="round" stroke-width="10"/>
    <path d="m98.792 238.57s16.054-2.052 27.266-11.792c11.212-9.74 17.581-27.168 17.581-27.168" fill="none"
          opacity=".97816" stroke="#000" stroke-linecap="round" stroke-linejoin="round" stroke-width="10"/>


    <g>
<use fill="#fddf19" xlink:href="#i"/>
        <mask id="u" x="254.285" y="148.073" width="219.163" height="232.305" maskUnits="userSpaceOnUse">
<rect x="254.28" y="148.07" width="219.16" height="232.3"/>
            <use fill="#ffffff" fill-rule="evenodd" xlink:href="#i"/>
</mask>
        <use fill="none" mask="url(#u)" stroke="#fddf19" stroke-linecap="butt" stroke-linejoin="round" stroke-width="20"
             xlink:href="#i"/>
</g>
    <path d="m454.85 148.07-14.583 33.153" fill="none" opacity=".97816" stroke="#000" stroke-linecap="round"
          stroke-linejoin="round" stroke-width="10"/>
    <path d="m455.86 148.08 23.449 7.086" fill="none" opacity=".97816" stroke="#000" stroke-linecap="round"
          stroke-linejoin="round" stroke-width="10"/>
    <path d="m479.31 155.16-11.724 29.952" fill="none" opacity=".97816" stroke="#000" stroke-linecap="round"
          stroke-linejoin="round" stroke-width="10"/>
    <path d="m467.58 185.11s10.613 111.42-38.673 162.97c-23.901 24.996-78.055 40.511-112.95 34.516-37.064-6.366-66.009-21.103-66.009-21.103"
          fill="none" opacity=".97816" stroke="#000" stroke-linecap="round" stroke-linejoin="round" stroke-width="10"/>
    <path d="m249.75 361.97 10.468-19.951" fill="none" opacity=".97816" stroke="#000" stroke-linecap="round"
          stroke-linejoin="round" stroke-width="10"/>
    <path d="m260.63 342.51 15.21-0.81" fill="none" opacity=".97816" stroke="#000" stroke-linecap="round"
          stroke-linejoin="round" stroke-width="10"/>
    <path d="m276.96 341.15-5.03 17.881" fill="none" opacity=".97816" stroke="#000" stroke-linecap="round"
          stroke-linejoin="round" stroke-width="10"/>
    <path d="m276.96 341.15s10.035-8.754 22.185-8.941c15.344-0.235 35.281 6.923 56.198-7.188 16.447-11.096 29.371-24.645 37.469-40.525 5.287-10.37 6.943-18.298 9.93-29.283 1.523-5.601 1.853-11.638 4.359-18.447s2.943-9.135 6.981-18.682c4.038-9.548 6.262-15.148 9.827-19.508 6.438-7.875 13.618-13.57 16.363-17.354 2.744-3.785 14.583 3.888 14.583 3.888"
          fill="none" opacity=".97816" stroke="#000" stroke-linecap="round" stroke-linejoin="round" stroke-width="10"/>
    <path d="m448.93 198.58s-4.963 8.259-7.914 16.189m-4.367 37.362c-3.96 23.365-13.771 50.34-34.183 69.052-19.096 17.506-48.338 34.617-76.221 30.419-29.614-4.458-28.842-3.597-28.842-3.597"
          fill="none" opacity=".97816" stroke="#000" stroke-linecap="round" stroke-linejoin="round" stroke-width="10"/>

</svg>
