<?xml version="1.0" encoding="UTF-8"?>
<svg xmlns:xlink="http://www.w3.org/1999/xlink" clip-rule="evenodd" stroke-linecap="round" stroke-linejoin="round"
     stroke-miterlimit="10"
     version="1.1" viewBox="0 0 190 230" xml:space="preserve"
     xmlns="http://www.w3.org/2000/svg">
<defs>
<path id="j"
      d="m17.844 12.462 109.35 0.1581 10.183 10.395 8.959 9.2351 3.755 4.0738v156.02c0 3.485-2.826 6.311-6.311 6.311h-125.94c-3.485 0-6.3102-2.826-6.3102-6.311v-173.57c0-3.4851 2.8252-6.3103 6.3102-6.3103z"/>
    <path id="i"
          d="m147.47 122.5c-15.361 0-27.813 18.345-27.813 40.969s12.452 40.969 27.813 40.969 27.812-18.345 27.812-40.969-12.451-40.969-27.812-40.969zm-0.063 13.031c8.545 0 15.469 12.652 15.469 28.281 0 15.63-6.924 28.313-15.469 28.313-8.544 0-15.469-12.683-15.468-28.313 0-15.629 6.924-28.281 15.468-28.281z"/>
    <path id="h"
          d="m113.88 164.96h68.432c1.894 0 3.429 0.932 3.429 2.081v57.258c0 1.15-1.535 2.082-3.429 2.082h-68.432c-1.894 0-3.429-0.932-3.429-2.082v-57.258c0-1.149 1.535-2.081 3.429-2.081z"/>
    <clipPath id="a">
<rect x="29.082" y="43.868" width="108.35" height="32.027"/>
</clipPath>
    <clipPath id="b">
<rect x="-14.766" y="75.46" width="20" height="1.9931"/>
</clipPath>
    <path id="g"
          d="m173.28 120.92-5.493-10.045-10.045-5.493 10.045-5.4937 5.493-10.044 5.493 10.044 10.045 5.4937-10.045 5.493-5.493 10.045z"/>
    <path id="f"
          d="m86.484 184.8-5.4934-10.045-10.044-5.493 10.044-5.494 5.4934-10.044 5.4935 10.044 10.045 5.494-10.045 5.493-5.4935 10.045z"/>
    <path id="e"
          d="m136.59 184.17c0-6.351 5.149-11.5 11.5-11.5s11.5 5.149 11.5 11.5c0 6.352-5.149 11.5-11.5 11.5s-11.5-5.148-11.5-11.5z"/>
    <path id="d"
          d="m137.02 195.67c3.99-3.021 7.466-3.54 10.883-3.547 3.243-7e-3 7.609 0.582 11.278 3.547 6.914 5.589 5.615 22.353 5.615 22.353h-34.369s-1.909-15.915 6.593-22.353z"/>
    <path id="c" d="m175.39 167.42h1e-3v0.03h-1e-3v-0.03z"/>
</defs>

    <path d="m48.212 83.831 69.828 0.1403" stroke="#000" stroke-linecap="round" stroke-linejoin="round"
          stroke-width="4.4303"/>
    <g>
<use fill="#efefef" xlink:href="#j"/>
        <mask id="r" x="11.5343" y="12.4618" width="138.557" height="186.196" maskUnits="userSpaceOnUse">
<rect x="11.534" y="12.462" width="138.56" height="186.2"/>
            <use fill="#ffffff" fill-rule="evenodd" xlink:href="#j"/>
</mask>
        <use fill="none" mask="url(#r)" stroke="#000000" stroke-linecap="round" stroke-linejoin="round"
             stroke-width="8.8606" xlink:href="#j"/>
</g>
    <path d="m122.5 19.247v15.595c0 3.136 2.545 5.6782 5.683 5.6782h15.263" fill="none" stroke="#adadad"
          stroke-linecap="square" stroke-linejoin="round" stroke-width="4.4303"/>
    <path d="m48.179 99.277 69.828 0.1403" fill="none" stroke="#000" stroke-linecap="round" stroke-linejoin="round"
          stroke-width="4.4303"/>
    <path d="m48.23 114.57 32.296 0.065 37.532 0.076" fill="none" stroke="#000" stroke-linecap="round"
          stroke-linejoin="round" stroke-width="4.4303"/>
    <path d="m48.231 130.23 24.885 0.015 28.92 0.018" fill="none" stroke="#000" stroke-linecap="round"
          stroke-linejoin="round" stroke-width="4.4303"/>
    <path d="m48.217 145.51 24.885 0.015 28.92 0.018" fill="none" stroke="#000" stroke-linecap="round"
          stroke-linejoin="round" stroke-width="4.4303"/>
    <g>
<use fill="#fddf19" xlink:href="#i"/>
        <mask id="q" x="119.656" y="122.5" width="55.625" height="81.9375" maskUnits="userSpaceOnUse">
<rect x="119.66" y="122.5" width="55.625" height="81.938"/>
            <use fill="#ffffff" fill-rule="evenodd" xlink:href="#i"/>
</mask>
        <use fill="none" mask="url(#q)" stroke="#000000" stroke-linecap="round" stroke-linejoin="round"
             stroke-width="6.6" xlink:href="#i"/>
</g>
    <g>
<use fill="#49c3df" xlink:href="#h"/>
        <mask id="p" x="110.447" y="164.956" width="75.2898" height="61.4213" maskUnits="userSpaceOnUse">
<rect x="110.45" y="164.96" width="75.29" height="61.421"/>
            <use fill="#ffffff" fill-rule="evenodd" xlink:href="#h"/>
</mask>
        <use fill="none" mask="url(#p)" stroke="#000000" stroke-linecap="round" stroke-linejoin="round"
             stroke-width="8.8606" xlink:href="#h"/>
</g>
    <g>
<path d="m33.502 68.802c0.6982 0 1.1426-0.457 1.1426-1.1806v-5.5352h4.2275c3.4404 0 5.8906-2.4248 5.8906-5.9033 0-3.4658-2.4248-5.8779-5.8652-5.8779h-5.3955c-0.6983 0-1.1426 0.457-1.1426 1.1806v16.136c0 0.7236 0.4443 1.1806 1.1426 1.1806zm1.1426-8.747v-7.7188h3.6562c2.6279 0 4.1133 1.4219 4.1133 3.8467 0 2.4375-1.4981 3.8721-4.1133 3.8721h-3.6562z"
      clip-path="url(#a)"/>
        <path d="m48.52 68.852c0.6856 0 1.1426-0.4697 1.1426-1.1806v-6.2969h4.3799l3.6689 6.7412c0.292 0.5459 0.5967 0.7363 1.1172 0.7363 0.6602 0 1.168-0.457 1.168-1.0537 0-0.2539-0.0635-0.4824-0.2412-0.7998l-3.3516-5.9795c2.2979-0.7236 3.6817-2.7041 3.6817-5.2558 0-3.3008-2.3106-5.459-5.8399-5.459h-5.7256c-0.6982 0-1.1425 0.457-1.1425 1.1806v16.187c0 0.7109 0.457 1.1806 1.1425 1.1806zm1.1426-9.4961v-7.0205h4.2783c2.3614 0 3.7832 1.3076 3.7832 3.5039 0 2.2471-1.333 3.5166-3.6816 3.5166h-4.3799z"
              clip-path="url(#a)"/>
        <path d="m64.097 68.802c0.6982 0 1.1426-0.457 1.1426-1.1806v-16.314c0-0.7236-0.4444-1.1807-1.1426-1.1807-0.6983 0-1.1426 0.4571-1.1426 1.1807v16.314c0 0.7236 0.4443 1.1806 1.1426 1.1806z"
              clip-path="url(#a)"/>
        <path d="m75.218 68.802c0.7236 0 1.1045-0.2793 1.3965-1.041l6.1572-16.009c0.0889-0.2412 0.1396-0.457 0.1396-0.6347 0-0.5713-0.4824-0.9903-1.1552-0.9903-0.5586 0-0.8633 0.2285-1.0791 0.8125l-5.4209 14.904h-0.0762l-5.4209-14.904c-0.2031-0.5586-0.5459-0.8125-1.0918-0.8125-0.6855 0-1.1426 0.3936-1.1426 0.9903 0 0.1777 0.0381 0.3808 0.1397 0.6347l6.1445 15.996c0.292 0.7617 0.6855 1.0537 1.4092 1.0537z"
              clip-path="url(#a)"/>
        <path d="m83.61 68.802c0.5713 0 0.9013-0.2666 1.1172-0.8759l1.6123-4.545h7.249l1.625 4.545c0.2158 0.6093 0.5459 0.8759 1.1172 0.8759 0.6601 0 1.1426-0.4189 1.1426-1.0029 0-0.165-0.0381-0.3555-0.1397-0.6348l-5.9033-15.945c-0.2793-0.749-0.7363-1.0918-1.4346-1.0918-0.749 0-1.2187 0.3555-1.498 1.1045l-5.8906 15.933c-0.1016 0.2793-0.1397 0.4698-0.1397 0.6348 0 0.584 0.4824 1.0029 1.1426 1.0029zm3.3896-7.3632 2.9326-8.3536h0.0762l2.9326 8.3536h-5.9414z"
              clip-path="url(#a)"/>
        <path d="m106.98 68.928c3.352 0 5.738-1.3711 6.944-3.7959 0.204-0.4063 0.305-0.749 0.305-1.1426 0-0.5967-0.432-1.0283-1.041-1.0283-0.508 0-0.825 0.2412-1.066 0.7998-0.864 2.0566-2.743 3.0596-5.129 3.0596-3.618 0-5.916-2.8692-5.916-7.3633 0-4.4561 2.323-7.3506 5.903-7.3506 2.26 0 4.228 1.168 5.091 3.3262 0.254 0.6474 0.647 0.9521 1.206 0.9521 0.622 0 1.028-0.4062 1.028-1.041 0-0.2666-0.063-0.584-0.19-0.9014-1.079-2.7295-3.796-4.4433-7.135-4.4433-5.015 0-8.2519 3.707-8.2519 9.458 0 5.8017 3.1989 9.4707 8.2519 9.4707z"
              clip-path="url(#a)"/>
        <path d="m122.83 68.802c0.698 0 1.142-0.457 1.142-1.1806v-6.8809l5.929-8.874c0.178-0.2666 0.229-0.4824 0.229-0.7363 0-0.5713-0.483-1.003-1.105-1.003-0.457 0-0.724 0.1651-1.003 0.584l-5.154 7.8203h-0.076l-5.155-7.8203c-0.279-0.4189-0.545-0.584-1.003-0.584-0.622 0-1.104 0.4317-1.104 1.003 0 0.2539 0.051 0.4697 0.229 0.7363l5.928 8.874v6.8809c0 0.7236 0.445 1.1806 1.143 1.1806z"
              clip-path="url(#a)"/>
</g>
    <g>
<path d="m-6.2939 98.476c0.64453 0 1.0547-0.4219 1.0547-1.0899v-14.086h4.5c0.59766 0 1.0078-0.3867 1.0078-0.9492s-0.41016-0.9492-1.0078-0.9492h-11.109c-0.5976 0-1.0078 0.3867-1.0078 0.9492s0.4102 0.9492 1.0078 0.9492h4.5v14.086c0 0.668 0.41015 1.0899 1.0547 1.0899z"
      clip-path="url(#b)"/>
        <path d="m-6.8329 127.16c2.2266 0 3.9375-0.937 4.7227-2.59 0.09375-0.222 0.15234-0.433 0.15234-0.597 0-0.539-0.36328-0.891-0.90234-0.891-0.31641 0-0.55078 0.117-0.76172 0.41-0.94922 1.383-1.8398 1.899-3.293 1.899-2.1797 0-3.5273-1.524-3.5273-3.985h7.6172c0.70313 0 1.125-0.445 1.125-1.183 0-3.34-2.1914-5.672-5.3086-5.672-3.3633 0-5.5313 2.508-5.5313 6.351 0 3.938 2.1094 6.258 5.7071 6.258zm-3.5977-7.347c0.1289-2.098 1.4883-3.493 3.3867-3.493 1.8867 0 3.1875 1.383 3.2344 3.493h-6.6211z"
              clip-path="url(#b)"/>
        <path d="m-7.7118 155.8c2.8945 0 4.8516-1.465 4.8516-3.645 0-1.793-0.9375-2.683-3.4805-3.304l-1.8164-0.446c-1.3359-0.328-1.9921-0.914-1.9921-1.758 0-1.043 1.0195-1.781 2.4843-1.781 1.2422 0 2.0273 0.446 2.5547 1.465 0.22265 0.422 0.5039 0.551 0.90234 0.551 0.49219 0 0.79688-0.317 0.79688-0.797 0-0.094-0.01172-0.188-0.03516-0.305-0.31641-1.465-2.0977-2.59-4.1016-2.59-2.7539 0-4.6172 1.442-4.6172 3.563 0 1.711 1.1367 2.824 3.4922 3.41l1.8633 0.469c1.3711 0.34 1.875 0.808 1.875 1.687 0 1.137-1.0547 1.817-2.6133 1.817-1.5586 0-2.2852-0.481-2.8945-1.547-0.2344-0.422-0.5274-0.61-0.8906-0.61-0.5274 0-0.9258 0.305-0.9258 0.844 0 0.153 0.0234 0.305 0.0937 0.481 0.586 1.523 2.2852 2.496 4.4532 2.496z"
              clip-path="url(#b)"/>
        <path d="m-11.286 181.42c0 1.945 0.9844 2.906 2.9532 2.906h0.12891c1.1367 0 1.4883-0.328 1.4883-0.949 0-0.48-0.30469-0.75-0.97266-0.797l-0.17578-0.012c-1.0195-0.07-1.3828-0.562-1.3828-1.593v-7.254h1.5703c0.58594 0 0.91406-0.305 0.91406-0.844 0-0.527-0.32812-0.832-0.91406-0.832h-1.5703v-2.086c0-0.644-0.42188-1.09-1.0195-1.09-0.5977 0-1.0196 0.446-1.0196 1.09v2.086h-1.0195c-0.5859 0-0.9141 0.305-0.9141 0.832 0 0.539 0.3282 0.844 0.9141 0.844h1.0195v7.699z"
              clip-path="url(#b)"/>
        <path d="m-6.8915 213.08c3.3633 0 5.6367-2.426 5.6367-6.305 0-3.89-2.2734-6.304-5.6367-6.304-3.375 0-5.6485 2.414-5.6485 6.304 0 3.879 2.2735 6.305 5.6485 6.305zm0-1.793c-2.1562 0-3.5743-1.641-3.5743-4.512s1.418-4.511 3.5743-4.511 3.5625 1.64 3.5625 4.511-1.4062 4.512-3.5625 4.512z"
              clip-path="url(#b)"/>
</g>
    <path d="m125.82 16.285v17.076c0 2.1602 1.751 3.9115 3.911 3.9115h16.684" fill="none" stroke="#000"
          stroke-linecap="round" stroke-linejoin="round" stroke-width="4.4303"/>
    <g>
<use fill="#f1d244" xlink:href="#g"/>
        <mask id="o" x="157.746" y="89.8419" width="31.0758" height="31.0758" maskUnits="userSpaceOnUse">
<rect x="157.75" y="89.842" width="31.076" height="31.076"/>
            <use fill="#ffffff" fill-rule="evenodd" xlink:href="#g"/>
</mask>
        <use fill="none" mask="url(#o)" stroke="#000000" stroke-linecap="butt" stroke-linejoin="round"
             stroke-width="4.9676" xlink:href="#g"/>
</g>
    <g>
<use fill="#f1d244" xlink:href="#f"/>
        <mask id="n" x="70.946" y="153.728" width="31.0758" height="31.0758" maskUnits="userSpaceOnUse">
<rect x="70.946" y="153.73" width="31.076" height="31.076"/>
            <use fill="#ffffff" fill-rule="evenodd" xlink:href="#f"/>
</mask>
        <use fill="none" mask="url(#n)" stroke="#000000" stroke-linecap="butt" stroke-linejoin="round"
             stroke-width="4.9676" xlink:href="#f"/>
</g>
    <path d="m174.94 186.56-0.015 13.377-0.017 15.547" fill="none" stroke="#c1e9f6" stroke-linecap="round"
          stroke-linejoin="round" stroke-width="4.4303"/>
    <path d="m175 175.16-0.015 1.503-0.018 1.746" fill="none" stroke="#c1e9f6" stroke-linecap="round"
          stroke-linejoin="round" stroke-width="4.4303"/>
    <path d="m121.04 204.43 0.015-13.377 0.017-15.547" fill="none" stroke="#c1e9f6" stroke-linecap="round"
          stroke-linejoin="round" stroke-width="4.4303"/>
    <path d="m120.98 215.83 0.015-1.502 0.018-1.747" fill="none" stroke="#c1e9f6" stroke-linecap="round"
          stroke-linejoin="round" stroke-width="4.4303"/>
    <g>
<use fill="#ffb59f" xlink:href="#e"/>
        <mask id="m" x="136.592" y="172.666" width="23" height="23" maskUnits="userSpaceOnUse">
<rect x="136.59" y="172.67" width="23" height="23"/>
            <use fill="#ffffff" fill-rule="evenodd" xlink:href="#e"/>
</mask>
        <use fill="none" mask="url(#m)" stroke="#000000" stroke-linecap="butt" stroke-linejoin="round" stroke-width="7"
             xlink:href="#e"/>
</g>
    <g>
<use fill="#da5b65" xlink:href="#d"/>
        <mask id="l" x="130.248" y="192.119" width="34.6495" height="25.9007" maskUnits="userSpaceOnUse">
<rect x="130.25" y="192.12" width="34.65" height="25.901"/>
            <use fill="#ffffff" fill-rule="evenodd" xlink:href="#d"/>
</mask>
        <use fill="none" mask="url(#l)" stroke="#000000" stroke-linecap="butt" stroke-linejoin="round" stroke-width="7"
             xlink:href="#d"/>
</g>
    <g>
<use fill="#ffb59f" xlink:href="#c"/>
        <mask id="k" x="175.389" y="167.419" width="0.00141725" height="0.0303418" maskUnits="userSpaceOnUse">
<rect x="175.39" y="167.42" width=".0014172" height=".030342"/>
            <use fill="#ffffff" fill-rule="evenodd" xlink:href="#c"/>
</mask>
        <use fill="none" mask="url(#k)" stroke="#000000" stroke-linecap="butt" stroke-linejoin="round" stroke-width="7"
             xlink:href="#c"/>
</g>
    <path d="m23.489 26.27v153.57c0 3.824 1.8837 6.924 4.2074 6.924h76.202" fill="none" stroke="#fff"
          stroke-linecap="round" stroke-linejoin="round" stroke-width="4.4303"/>

</svg>
