<?xml version="1.0" encoding="UTF-8"?>
<svg xmlns:xlink="http://www.w3.org/1999/xlink" clip-rule="evenodd" stroke-linecap="round" stroke-linejoin="round"
     stroke-miterlimit="10"
     version="1.1" viewBox="0 0 330 360" xml:space="preserve"
     xmlns="http://www.w3.org/2000/svg">
<defs>
<path id="i"
      d="m7.029 35.856 0.61657-0.2949c4.9974-2.3909 12.203 0.6794 16.094 6.8578l114.92 182.46c3.891 6.179 2.994 13.125-2.003 15.516l-0.617 0.295c-4.997 2.391-12.203-0.679-16.094-6.858l-114.92-182.46c-3.8911-6.1783-2.9942-13.125 2.0033-15.516z"/>
    <path id="h"
          d="m107.64 270.04c32.811-9.345 58.764-41.306 59.655-61.023 0.89-19.716-23.924-16.769-23.924-16.769s11.5-26.575-4.058-35.648c-15.559-9.073-29.105 7.105-29.105 7.105s-11.856-43.679-43.639-33.389c-31.783 10.29-14.017 50.923-14.017 50.923s-17.488-6.499-26.287 12.386c-8.799 18.884 16.92 32.955 16.92 32.955l-11.02 16.318s42.664 36.488 75.475 27.142z"/>
    <path id="g"
          d="m179.56 227.06c28.706-18.437 44.305-56.537 39.455-75.669s-27.752-9.133-27.752-9.133 3.323-28.765-14.195-32.951c-17.518-4.185-25.805 15.22-25.805 15.22s-23.984-38.383-51.432-19.34c-27.448 19.043 1.3109 52.801 1.3109 52.801s-18.62-1.163-21.581 19.459c-2.9608 20.622 25.729 26.653 25.729 26.653l-5.8292 18.808s51.394 22.589 80.099 4.152z"/>
    <path id="f"
          d="m208.98 221.44c-25.465-22.703-34.908-62.776-27.123-80.913 7.785-18.136 28.839-4.675 28.839-4.675s1.222-28.931 19.179-30.323c17.957-1.391 23.105 19.072 23.105 19.072s29.696-34.155 53.824-11.05c24.129 23.104-9.56 51.944-9.56 51.944s18.573 1.767 18.269 22.598-29.584 22.297-29.584 22.297l2.813 19.488s-54.296 14.265-79.762-8.438z"/>
    <path id="e"
          d="m257.72 234.03-49.542-95.904c-2.627 0.733-5.191 1.672-7.665 2.777-15.624 6.975-27.813 21.037-31.57 39.069-6.213 29.818 12.927 59.034 42.746 65.247 14.023 2.922 27.87 0.174 39.295-6.592 2.342-1.387 4.621-2.881 6.736-4.597z"/>
    <path id="d"
          d="m72.002 198.58s-1.9554-13.91 7.7463-30.435c9.7018-16.525 13.504-13.937 24.944-2.597l55.628 55.141c11.441 11.34 7.742 20.325-8.261 20.069l-43.601-0.698c-8.148-0.131-19.433-6.305-26.478-15.817-6.7918-9.17-10.183-20.13-9.9783-25.663z"/>
    <path id="c"
          d="m108.34 169.16c-7.512 5.284-12.437 14.127-12.437 24.187 0 16.2 12.764 29.344 28.531 29.344 10.152 0 19.032-5.485 24.094-13.688l-40.188-39.843z"/>
    <path id="b"
          d="m27.801 216.41s-4.1022 42.856 17.726 77.596c21.828 34.74 70.77 62.472 70.77 62.472l103.52 0.443s45.121-24.604 66.949-59.731c21.828-35.128 20.363-80.78 20.363-80.78h-279.33z"/>
    <path id="a"
          d="m147.74 1.92-83.781 68.062c1.2535 2.4222 2.6958 4.7415 4.2813 6.9375 10.016 13.873 26.269 22.938 44.688 22.938 30.458 0 55.156-24.698 55.156-55.156 0-14.325-5.514-27.32-14.469-37.125-1.835-2.0097-3.763-3.9361-5.875-5.6562z"/>
</defs>
    <clipPath id="s">
<rect width="330" height="360"/>
</clipPath>
    <g clip-path="url(#s)">
<g opacity=".97479">
<use fill="#adadad" xlink:href="#i"/>
    <mask id="r" x="2.60575" y="34.7491" width="138.469" height="206.757" maskUnits="userSpaceOnUse">
<rect x="2.6058" y="34.749" width="138.47" height="206.76"/>
        <use fill="#ffffff" fill-rule="evenodd" xlink:href="#i"/>
</mask>
    <use fill="none" mask="url(#r)" stroke="#000000" stroke-linecap="round" stroke-linejoin="round"
         stroke-width="8.7902" xlink:href="#i"/>
</g>
        <g>
<use fill="#91d04b" xlink:href="#h"/>
            <mask id="q" x="24.4339" y="128.751" width="142.887" height="142.825" maskUnits="userSpaceOnUse">
<rect x="24.434" y="128.75" width="142.89" height="142.82"/>
                <use fill="#ffffff" fill-rule="evenodd" xlink:href="#h"/>
</mask>
            <use fill="none" mask="url(#q)" stroke="#000000" stroke-linecap="round" stroke-linejoin="round"
                 stroke-width="14.89" xlink:href="#h"/>
</g>
        <g>
<use fill="#49a080" xlink:href="#g"/>
            <mask id="p" x="79.3436" y="99.8858" width="140.544" height="134.415" maskUnits="userSpaceOnUse">
<rect x="79.344" y="99.886" width="140.54" height="134.42"/>
                <use fill="#ffffff" fill-rule="evenodd" xlink:href="#g"/>
</mask>
            <use fill="none" mask="url(#p)" stroke="#000000" stroke-linecap="round" stroke-linejoin="round"
                 stroke-width="14.89" xlink:href="#g"/>
</g>
        <g>
<use fill="#93d979" xlink:href="#f"/>
            <mask id="o" x="179.204" y="105.46" width="136.312" height="128.84" maskUnits="userSpaceOnUse">
<rect x="179.2" y="105.46" width="136.31" height="128.84"/>
                <use fill="#ffffff" fill-rule="evenodd" xlink:href="#f"/>
</mask>
            <use fill="none" mask="url(#o)" stroke="#000000" stroke-linecap="round" stroke-linejoin="round"
                 stroke-width="14.89" xlink:href="#f"/>
</g>
        <g opacity=".97479">
<use fill="#fc6772" xlink:href="#e"/>
            <mask id="n" x="167.767" y="138.127" width="89.9477" height="108.252" maskUnits="userSpaceOnUse">
<rect x="167.77" y="138.13" width="89.948" height="108.25"/>
                <use fill="#ffffff" fill-rule="evenodd" xlink:href="#e"/>
</mask>
            <use fill="none" mask="url(#n)" stroke="#000000" stroke-linecap="round" stroke-linejoin="round"
                 stroke-width="16.765" xlink:href="#e"/>
</g>
        <path d="m199.44 182.1 9.767 2.152" fill="none" stroke="#000" stroke-linecap="round" stroke-linejoin="round"
              stroke-width="8.7"/>
        <path d="m214.49 202.21-8.613 5.082" fill="none" stroke="#000" stroke-linecap="round" stroke-linejoin="round"
              stroke-width="8.7"/>
        <g>
<use fill="#ffffff" xlink:href="#d"/>
            <mask id="m" x="71.8403" y="156.394" width="95.1257" height="84.3658" maskUnits="userSpaceOnUse">
<rect x="71.84" y="156.39" width="95.126" height="84.366"/>
                <use fill="#ffffff" fill-rule="evenodd" xlink:href="#d"/>
</mask>
            <use fill="none" mask="url(#m)" stroke="#000000" stroke-linecap="round" stroke-linejoin="round"
                 stroke-width="14.88" xlink:href="#d"/>
</g>
        <g opacity=".97479">
<path d="m210.03 150.53c-5.712 1.614-11.081 4.071-15.656 7.907-2.389 2.003-4.503 4.312-6.281 6.874-11.006 15.86-7.487 38.251 4.656 52.407 7.71 8.988 18.707 14.457 30.438 15.719 5.93 0.637 11.857 0.196 17.718-0.813-5.862 0.828-11.774 1.093-17.656 0.281-11.422-1.577-21.999-7.187-29.25-16.218-11.224-13.981-13.805-35.606-2.281-50.219 1.74-2.207 3.783-4.187 6.031-5.875 3.99-2.998 8.551-4.927 13.344-6.219 1.064-0.294 1.669-1.373 1.375-2.437-0.294-1.065-1.373-1.701-2.438-1.407z"/>
</g>
        <g>
<use fill="#fddf19" xlink:href="#c"/>
            <mask id="l" x="95.9077" y="169.158" width="52.625" height="53.5312" maskUnits="userSpaceOnUse">
<rect x="95.908" y="169.16" width="52.625" height="53.531"/>
                <use fill="#ffffff" fill-rule="evenodd" xlink:href="#c"/>
</mask>
            <use fill="none" mask="url(#l)" stroke="#000000" stroke-linecap="butt" stroke-linejoin="round"
                 stroke-width="14.89" xlink:href="#c"/>
</g>
        <g>
<use fill="#d5eaff" xlink:href="#b"/>
            <mask id="k" x="27.4948" y="216.409" width="279.653" height="140.511" maskUnits="userSpaceOnUse">
<rect x="27.495" y="216.41" width="279.65" height="140.51"/>
                <use fill="#ffffff" fill-rule="evenodd" xlink:href="#b"/>
</mask>
            <use fill="none" mask="url(#k)" stroke="#000000" stroke-linecap="round" stroke-linejoin="round"
                 stroke-width="21.726" xlink:href="#b"/>
</g>
        <path d="m36.927 255.93h188.87" fill="none" stroke="#000" stroke-linecap="round" stroke-linejoin="round"
              stroke-width="10.863"/>
        <path d="m248.03 255.93h49.211" fill="none" stroke="#000" stroke-linecap="round" stroke-linejoin="round"
              stroke-width="10.863"/>
        <g opacity=".97479">
<use fill="#fc6772" xlink:href="#a"/>
            <mask id="j" x="63.9591" y="1.92001" width="104.125" height="97.9375" maskUnits="userSpaceOnUse">
<rect x="63.959" y="1.92" width="104.12" height="97.938"/>
                <use fill="#ffffff" fill-rule="evenodd" xlink:href="#a"/>
</mask>
            <use fill="none" mask="url(#j)" stroke="#000000" stroke-linecap="round" stroke-linejoin="round"
                 stroke-width="16.765" xlink:href="#a"/>
</g>
        <path d="m107.44 65.718 0.141 10" fill="none" stroke="#000" stroke-linecap="round" stroke-linejoin="round"
              stroke-width="8.7"/>
        <path d="m124.09 58.846 7.266 6.8724" fill="none" stroke="#000" stroke-linecap="round" stroke-linejoin="round"
              stroke-width="8.7"/>
        <path d="m131.36 42.409 10.001 0.0976" fill="none" stroke="#000" stroke-linecap="round" stroke-linejoin="round"
              stroke-width="8.7"/>
        <path d="m272.64 144.61s-8.633 7.944-16.248 18.164c-7.614 10.219-14.209 24.148-14.209 24.148" fill="none"
              opacity=".97479" stroke="#000" stroke-linecap="round" stroke-linejoin="round" stroke-width="4.3951"/>
        <path d="m365.9 211.77s-16.352-16.024-29.126-24.111c-12.773-8.087-29.131-8.237-29.131-8.237" fill="none"
              opacity="0" stroke="#000" stroke-linecap="round" stroke-linejoin="round" stroke-width="4.3951"/>
        <path d="m144.08 165.92s5.465 11.109 8.923 23.68c3.459 12.571 4.301 27.841 4.301 27.841" fill="none"
              opacity=".97479" stroke="#000" stroke-linecap="round" stroke-linejoin="round" stroke-width="4.3951"/>
        <g opacity=".97479">
<path d="m146.84 13.781c2.601 5.5375 4.645 11.298 5.687 17.344 2.005 11.632 0.012 23.746-6.437 33.719-9.383 14.508-27.872 23.514-44.906 18.094-2.6847-0.8541-5.2771-2.0548-7.6568-3.5625-5.0673-3.2106-8.9671-7.6988-12.125-12.75-0.591-0.933-1.8482-1.216-2.7812-0.625s-1.1848 1.8483-0.5938 2.7812c3.5362 5.5121 7.9065 10.343 13.531 13.781 2.678 1.6371 5.5758 2.9164 8.5935 3.7813 17.854 5.1161 36.844-4.3529 46.594-19.469 6.838-10.6 8.806-23.587 6.312-35.875-1.225-6.0386-3.442-11.736-6.218-17.219z"/>
</g>
</g>
</svg>
